<svg width="1024" height="1024" viewBox="0 0 1024 1024" fill="none" xmlns="http://www.w3.org/2000/svg">
<path d="M256.461 110.5C266.168 107.194 268.785 107.574 260.394 113.611C251.995 119.654 232.592 131.354 218.088 142.046C203.584 152.738 193.991 162.405 184.398 172.072C166.007 186.168 147.62 200.271 131.63 214.166C115.64 228.061 102.05 241.755 91.0566 255.051C80.6319 267.549 71.6461 281.198 64.2725 295.735C56.8806 310.24 50.4771 326.348 44.8174 344.805C39.1519 363.263 34.2184 384.06 31.6172 408.428C29.0217 432.802 28.7584 460.737 28.627 483.573C28.4955 506.408 28.4961 524.129 30.6914 543.065C32.8925 561.995 37.289 582.14 42.6914 602.073C48.0825 622.011 54.4793 641.754 64.0723 663.103C73.6653 684.447 86.4607 707.41 100.25 727.348C114.039 747.286 128.824 764.206 146.015 781.932C163.2 799.652 182.792 818.185 202.984 833.895C221.174 848.013 240.51 860.565 260.788 871.415C277.613 880.345 290.477 885.305 304.271 890.34C318.066 895.375 332.777 900.484 347.492 905.594C363.883 913.245 380.268 920.901 395.458 927.146C410.648 933.391 424.626 938.224 438.604 943.057C425.821 942.654 413.048 942.251 395.863 939.831C378.678 937.412 357.091 932.981 336.636 928.275C316.181 923.568 296.845 918.585 276.059 908.918C255.272 899.252 233.026 884.901 212.908 871.283C192.79 857.658 174.799 844.766 158.614 830.669C142.43 816.573 128.046 801.277 115.251 786.166C102.456 771.056 91.2678 756.158 80.0684 740.039C68.8689 723.921 57.6752 706.603 48.2822 690.622C38.8894 674.642 31.2912 659.998 24.168 642.538C17.039 625.082 10.3731 604.798 6.37695 584.526C2.38082 564.254 1.04851 543.986 0.408203 519.733C-0.237796 495.48 -0.186542 467.235 1.06543 441.213C2.31172 415.192 4.76477 391.399 10.333 367.255C15.907 343.112 24.5975 318.616 34.7393 298.315C44.881 278.014 56.4753 261.901 68.6064 246.26C80.7262 230.626 93.3835 215.456 106.967 202.109C120.562 188.75 135.078 177.205 152.932 165.124C171.617 152.533 190.991 141.008 210.959 130.606C229.95 120.801 246.748 113.807 256.461 110.5ZM695.079 884.452C687.001 887.257 678.917 890.063 663.287 895.87C648.76 901.267 627.703 909.255 619.488 911.216C616.582 912.359 613.523 913.515 610.439 914.651C592.843 921.137 574.439 926.978 559.312 931.512C544.186 936.046 532.35 939.255 520.511 942.469C508.008 939.036 495.51 935.608 481.664 932.279C467.818 928.949 452.622 925.734 437.432 922.508C457.418 922.105 477.41 921.702 492.669 920.296C507.933 918.885 518.465 916.471 529.658 913.654C540.846 910.831 552.698 907.605 564.555 904.379C593.203 901.299 621.853 898.209 633.444 898.804C644.047 896.69 654.616 894.564 664.55 892.263C675.212 889.792 685.143 887.125 695.079 884.452ZM827.57 714.956C845.406 691.759 862.425 665.232 864.182 666.191C865.935 667.157 852.422 695.602 841.932 716.657C831.441 737.712 823.98 751.366 816.52 765.019C801.41 780.055 786.299 795.096 769.143 809.861C751.986 824.626 732.765 839.121 713.557 853.615L642.946 873.893C668.387 857.475 693.822 841.05 715.403 825.052C736.985 809.055 754.707 793.482 772.898 775.756C791.09 758.03 809.734 738.155 827.57 714.956ZM757.389 118.588C762.505 120.46 767.622 122.333 771.052 123.739C774.487 125.144 776.238 126.083 777.987 127.016C780.619 128.601 783.339 130.032 786.134 131.302C789.701 132.904 794.544 134.77 799.191 137.184C803.839 139.598 808.282 142.542 814.204 146.69C821.067 151.487 827.822 156.44 834.465 161.541C841.874 167.261 849.064 173.264 856.018 179.538C865.115 187.688 873.98 196.099 882.602 204.759C890.483 212.645 897.988 220.906 905.087 229.513C911.553 237.411 917.07 245.039 922.593 252.931C928.175 260.96 933.696 269.034 939.154 277.15C940.223 279.154 941.304 281.165 942.984 286.044C945.345 293.118 947.345 300.31 948.977 307.59C951 316.491 952.75 326.526 954.499 335.887C956.248 345.254 957.998 353.953 959.278 364.19C960.559 374.427 961.365 386.203 961.365 395.363C961.365 404.533 960.559 411.09 960.29 417.311C960.016 423.532 960.29 429.421 960.559 435.302C960.559 435.547 960.556 435.791 959.983 437.335C960.003 438.087 960.023 438.838 960.038 439.582C960.187 447.244 960.187 454.123 959.255 462.879C958.329 471.636 956.465 482.266 954.602 491.644C953.911 495.12 953.219 498.425 952.545 501.535C952.392 503.247 952.098 505.095 951.761 506.997C950.635 513.339 949.045 520.281 947.056 528.092C944.832 536.945 942.291 545.716 939.44 554.385C936.193 564.201 932.088 575.147 926.788 588.028C920.395 603.578 913.458 618.897 905.99 633.954C896.981 652.173 885.457 673.797 883.266 676.071C881.083 678.338 888.24 661.253 892.87 648.505C897.506 635.757 899.627 627.345 901.811 618.134C904 608.923 906.254 598.916 908.043 589.635C909.832 580.355 911.152 571.811 912.479 563.268C913.142 560.065 913.806 556.862 915.326 551.251C916.853 545.646 919.237 537.637 921.952 527.625C923.264 522.715 924.557 517.798 925.836 512.878C926.046 510.847 926.355 508.104 927.098 503.816C928.378 496.454 930.939 484.545 932.414 472.638C933.9 460.731 934.3 448.823 934.438 439.191C934.575 429.553 934.438 422.196 934.232 413.359C934.032 404.533 933.763 394.233 933.426 383.46C933.088 372.688 932.688 361.448 932.482 355.826C932.282 350.204 932.277 350.203 932.077 348.199C931.871 346.194 931.471 342.183 930.19 336.227C928.91 330.27 926.754 322.378 925.073 315.551C923.393 308.725 922.18 302.975 920.094 295.682C918.007 288.389 915.046 279.558 912.147 273.336C909.255 267.109 906.43 263.502 902.794 258.352C899.158 253.196 894.716 246.507 889.062 239.347C883.045 231.773 876.546 224.598 869.607 217.871C862.673 211.182 855.67 205.427 849.815 200.277C843.961 195.127 839.25 190.575 831.704 183.219C824.169 175.857 813.798 165.689 805.051 157.325C796.292 148.966 789.163 142.41 781.485 136.251C773.813 130.099 765.598 124.343 757.389 118.588ZM490.809 68.1489C494.424 68.1544 498.076 68.1715 501.836 68.2211C503.716 68.2459 505.623 68.2786 507.565 68.3227C508.537 68.3447 509.517 68.37 510.508 68.3979C517.441 68.5932 524.869 68.9396 533.175 69.5571C534.362 69.6449 535.567 69.7387 536.788 69.8373C546.559 70.6265 557.387 71.753 568.548 73.0912C571.338 73.4257 574.149 73.7732 576.97 74.1323C581.201 74.6709 585.454 75.235 589.69 75.8178C591.103 76.0121 592.514 76.2085 593.921 76.4067C595.328 76.6048 596.732 76.8047 598.131 77.0063L602.314 77.6157C614.826 79.4574 626.981 81.4174 638.994 83.4243C641.663 83.8701 644.326 84.3182 646.983 84.768C652.299 85.6677 657.596 86.5731 662.893 87.4789L753.192 141.862L746.493 138.977C745.375 138.497 744.254 138.019 743.132 137.541C738.643 135.632 734.116 133.744 729.504 131.907C726.621 130.758 723.704 129.629 720.741 128.527C713.803 125.946 706.614 123.511 699.018 121.312C698.685 121.216 698.352 121.12 698.019 121.025C697.511 120.88 697.002 120.736 696.491 120.593C689.269 118.577 681.673 116.778 673.913 115.122C673.207 114.971 672.5 114.821 671.792 114.672C668.96 114.079 666.108 113.505 663.248 112.944C660.388 112.383 657.518 111.837 654.649 111.301C653.48 111.083 652.311 110.867 651.143 110.652C649.444 110.339 647.747 110.03 646.054 109.724C640.34 108.69 634.669 107.685 629.122 106.681C626.842 106.268 624.583 105.854 622.333 105.442C621.101 105.216 619.871 104.993 618.643 104.768C606.855 102.612 595.165 100.505 581.945 98.5991C580.55 98.3979 579.138 98.1989 577.707 98.0024C576.049 97.7747 574.365 97.5505 572.653 97.3295C568.853 96.839 564.912 96.3655 560.8 95.9125L559.879 95.8129C559.305 95.7505 558.726 95.687 558.146 95.6254C557.253 95.5306 556.352 95.4371 555.444 95.3442C552.719 95.0655 549.925 94.7958 547.073 94.5366C544.152 94.271 541.17 94.0159 538.143 93.7739C536.244 93.6221 534.327 93.4759 532.396 93.3344C531.393 93.261 530.385 93.1882 529.375 93.1176C516.239 92.2005 502.489 91.5345 489.116 91.2348C488.088 91.2118 487.061 91.191 486.038 91.1723C483.991 91.135 481.953 91.1064 479.931 91.0873C477.908 91.0683 475.9 91.0581 473.91 91.058C470.925 91.058 467.981 91.0801 465.089 91.1254C464.125 91.1405 463.166 91.1578 462.215 91.1782C460.353 91.218 458.514 91.2676 456.705 91.3256C455.287 91.3711 453.886 91.4227 452.507 91.477C442.831 91.8577 434.16 92.4273 427.352 92.8295C426.914 92.8554 426.484 92.8794 426.062 92.9037C425.342 92.9453 424.645 92.9864 423.972 93.0229C423.56 93.0452 423.156 93.0663 422.763 93.0864C422.657 93.0918 422.551 93.0967 422.446 93.102C421.981 93.1253 421.529 93.1467 421.092 93.1664C421.033 93.1691 420.974 93.1726 420.915 93.1752C420.635 93.1876 420.361 93.1977 420.093 93.2084C419.84 93.2186 419.592 93.2291 419.351 93.2377C419.289 93.2399 419.226 93.2415 419.165 93.2436C418.801 93.256 418.45 93.2672 418.111 93.2758C417.89 93.2814 417.673 93.2847 417.462 93.2885C417.267 93.2921 417.076 93.2973 416.891 93.2993C416.15 93.3072 415.486 93.3016 414.906 93.2817C414.666 93.2734 414.439 93.262 414.228 93.2485C414.187 93.2459 414.146 93.2435 414.106 93.2407C414.044 93.2362 413.983 93.2309 413.923 93.226C413.868 93.2214 413.813 93.2174 413.76 93.2123C413.696 93.2063 413.634 93.1995 413.574 93.1928C413.524 93.1873 413.475 93.1822 413.428 93.1762C413.38 93.1702 413.333 93.1631 413.288 93.1567C413.23 93.1484 413.174 93.1403 413.12 93.1313C413.083 93.125 413.045 93.1184 413.01 93.1118C412.963 93.103 412.917 93.0938 412.874 93.0844C412.83 93.075 412.788 93.0642 412.748 93.0541C412.714 93.0455 412.68 93.0369 412.648 93.0278C412.615 93.0181 412.582 93.0077 412.551 92.9975C412.517 92.9865 412.485 92.975 412.455 92.9633C412.428 92.9529 412.402 92.9421 412.378 92.9311C412.347 92.9173 412.319 92.9028 412.292 92.8881C412.275 92.8789 412.259 92.8694 412.244 92.8598C412.219 92.8438 412.197 92.826 412.177 92.809C412.161 92.7956 412.144 92.7839 412.131 92.77C412.125 92.7634 412.118 92.7571 412.112 92.7504C412.108 92.7456 412.105 92.7397 412.102 92.7348C412.094 92.7253 412.088 92.7153 412.082 92.7055C412.078 92.6985 412.074 92.6912 412.07 92.684C412.067 92.6777 412.064 92.671 412.062 92.6645C412.057 92.654 412.054 92.643 412.051 92.6323C412.049 92.6269 412.048 92.6211 412.047 92.6157C412.045 92.6059 412.044 92.5954 412.043 92.5854C412.042 92.5775 412.043 92.569 412.043 92.561C412.043 92.5349 412.046 92.5075 412.054 92.4799C412.056 92.4705 412.059 92.4602 412.062 92.4506C412.065 92.4429 412.068 92.4341 412.071 92.4262C412.076 92.4138 412.083 92.4008 412.09 92.3881C412.093 92.3817 412.098 92.3751 412.102 92.3686C412.116 92.3433 412.135 92.3179 412.154 92.2914C412.166 92.2754 412.178 92.2571 412.191 92.2407C412.262 92.157 412.357 92.0664 412.479 91.9711L412.684 91.8227C412.76 91.77 412.845 91.7155 412.936 91.6596C413.831 91.1074 415.398 90.4011 417.527 89.561C418.937 89.0049 420.595 88.3896 422.47 87.725C423.605 87.3226 424.821 86.9014 426.109 86.4633C426.799 86.2289 427.509 85.9885 428.239 85.7446C429.547 85.3077 430.919 84.8563 432.349 84.3911C435.517 83.3598 438.97 82.2624 442.642 81.1137C445.182 80.3191 447.827 79.4992 450.557 78.6606C453.179 77.8548 455.879 77.0303 458.638 76.1928C459.803 75.8389 460.98 75.4828 462.165 75.1245C469.669 72.8548 477.537 70.4995 485.403 68.1459C487.202 68.1459 489.001 68.1461 490.809 68.1489ZM341.22 102.734C338.597 105.158 335.923 107.791 333.251 110.425C326.517 112.683 319.776 114.947 312.476 117.211C305.175 119.475 297.314 121.739 289.453 124.003C297.314 119.101 305.181 114.193 313.813 109.579C322.464 104.965 331.365 100.841 340.472 97.227C345.988 95.0616 351.574 93.0821 357.22 91.2885C360.746 89.6287 364.312 87.9523 367.878 86.2758L341.22 102.734Z" fill="#67A687"/>
<path d="M516.372 41.952C527.103 41.4912 536.01 41.4107 541.127 41.5663C546.237 41.7218 547.564 42.1243 548.227 42.3202L556.185 44.786C563.48 47.0443 578.07 51.5724 590.613 56.1005C603.15 60.6285 613.641 65.1564 624.132 69.6786C605.414 67.0401 586.697 64.402 572.662 63.077C558.627 61.7521 549.262 61.7583 539.344 62.703C529.425 63.6478 518.939 65.5307 506.607 67.4491C494.27 69.3732 480.081 71.3269 466.795 74.3456C453.508 77.3642 441.114 81.4423 428.131 86.5809C415.147 91.7196 401.593 97.9072 389.05 104.135C376.507 110.356 364.987 116.613 355.674 123.14C346.355 129.661 339.243 136.447 331.193 144.183C323.144 151.92 314.157 160.596 305.176 170.747C296.189 180.903 287.207 192.534 276.35 206.303C265.494 220.071 252.762 235.977 241.534 253.928C230.3 271.878 220.569 291.875 211.96 312.435C203.35 332.996 195.861 354.115 189.309 373.356C182.758 392.597 177.143 409.949 171.152 432.209C165.161 454.469 158.804 481.625 154.493 506.708C150.188 531.796 147.941 554.811 147.569 573.292C147.197 591.773 148.69 605.737 153.561 623.653C158.426 641.569 166.664 663.455 175.274 682.881C183.884 702.306 192.865 719.284 202.041 735.132C211.211 750.974 220.57 765.681 232.176 780.394C243.781 795.108 257.633 809.821 274.481 824.344C291.329 838.867 311.167 853.205 330.416 866.069C349.665 878.933 368.32 890.346 387.083 899.563C405.84 908.781 424.706 915.814 447.168 922.779C469.63 929.744 495.677 936.651 516.972 940.638C538.268 944.618 554.808 945.69 572.628 946.03C590.447 946.37 609.537 945.99 628.065 945.057C646.6 944.112 664.568 942.608 678.98 940.344C693.393 938.08 704.249 935.062 718.427 930.453C732.606 925.844 750.1 919.645 767.594 913.446C749.213 925.486 730.828 937.521 716.272 945.333C701.723 953.15 691.003 956.739 680.29 960.334C671 962.621 661.709 964.908 651.23 966.227C640.745 967.552 629.071 967.904 612.755 968.083C596.433 968.256 575.469 968.255 557.872 967.696C540.281 967.126 526.051 965.997 511.078 963.358C496.1 960.714 480.378 956.566 464.096 951.664C447.541 946.646 431.125 941.174 414.867 935.252C398.768 929.405 383.424 923.372 366.33 914.149C349.242 904.932 330.416 892.529 309.823 877.862C289.236 863.201 266.883 846.27 250.281 831.914C233.673 817.552 222.817 805.765 209.119 786.461C195.421 767.156 178.875 740.316 165.566 715.585C152.246 690.854 142.167 668.219 136.021 647.492C129.881 626.77 127.68 607.954 126.765 588.172C125.845 567.363 126.292 546.514 128.103 525.765C129.973 503.885 133.34 480.871 137.834 460.31C142.327 439.75 147.941 421.649 153.932 403.352C160.134 384.561 166.499 365.824 173.027 347.144C179.762 327.713 186.874 307.342 195.152 287.635C203.425 267.915 212.857 248.864 223.908 231.57C234.953 214.276 247.617 198.745 260.566 184.66C273.515 170.575 286.744 157.929 298.904 145.232C311.064 132.535 322.16 119.781 332.611 110.166C343.062 100.551 352.866 94.0764 362.677 87.5956C377.198 81.2471 391.731 74.8986 405 68.9764C418.269 63.0543 430.281 57.5463 442.652 53.4677C455.029 49.3776 467.761 46.7162 480.418 44.9764C493.075 43.2367 505.63 42.4071 516.372 41.952ZM643.979 48.5546C644.072 48.5538 644.175 48.558 644.29 48.5643C644.334 48.5668 644.381 48.5706 644.428 48.5741C644.518 48.5807 644.613 48.5882 644.715 48.5985C644.795 48.6067 644.88 48.6163 644.968 48.6268C645.047 48.6363 645.129 48.6467 645.214 48.6581C645.319 48.6722 645.429 48.688 645.543 48.705C645.642 48.7197 645.744 48.735 645.849 48.7518C645.96 48.7696 646.075 48.7884 646.193 48.8085C646.324 48.8307 646.458 48.8547 646.597 48.8798C646.687 48.8959 646.779 48.9132 646.872 48.9305C647.03 48.96 647.193 48.9905 647.361 49.0233C647.513 49.053 647.67 49.0846 647.83 49.1171C647.938 49.139 648.049 49.1612 648.161 49.1844C648.347 49.223 648.538 49.2636 648.734 49.3055C648.897 49.3404 649.063 49.3758 649.232 49.413C649.317 49.4316 649.403 49.4504 649.49 49.4696C649.758 49.5291 650.034 49.5911 650.318 49.6561C650.402 49.6753 650.486 49.6951 650.571 49.7147C650.833 49.7753 651.101 49.8381 651.376 49.9032C651.468 49.925 651.561 49.9473 651.654 49.9696C651.971 50.0454 652.297 50.1234 652.63 50.205C652.712 50.225 652.794 50.2451 652.877 50.2655C653.131 50.328 653.389 50.3921 653.652 50.4579C653.857 50.5092 654.065 50.5618 654.275 50.6151C655.004 50.7998 655.764 50.9962 656.553 51.204C656.584 51.2121 656.615 51.2202 656.646 51.2284C657.55 51.4665 658.491 51.7199 659.469 51.9872C659.662 52.0401 659.856 52.0953 660.052 52.1493C660.883 52.3779 661.738 52.6147 662.616 52.8632C662.98 52.966 663.346 53.0734 663.718 53.1796C664.462 53.3924 665.222 53.6089 665.996 53.8348C666.079 53.8592 666.163 53.8836 666.247 53.9081C668.499 54.5668 670.872 55.2799 673.344 56.0438C673.567 56.1127 673.791 56.1831 674.015 56.2528C674.439 56.3843 674.866 56.5159 675.295 56.6503C675.405 56.6849 675.516 56.72 675.627 56.7548C676.812 57.1266 678.017 57.509 679.241 57.9022C679.495 57.9839 679.75 58.0667 680.006 58.1493C681.136 58.5143 682.282 58.8871 683.44 59.2694C684.482 59.6131 685.534 59.9649 686.595 60.3221C687.663 60.6812 688.741 61.0456 689.826 61.4178C701.557 65.4417 714.268 70.2288 726.73 75.2528C728.288 75.8808 729.842 76.5129 731.389 77.1473C739.127 80.3193 746.708 83.5581 753.831 86.7352C755.255 87.3707 756.662 88.0032 758.048 88.6327C759.433 89.2621 760.798 89.8882 762.139 90.5096C762.81 90.8199 763.475 91.1292 764.135 91.4374C764.794 91.7456 765.448 92.053 766.096 92.3593C766.954 92.7644 767.803 93.1681 768.642 93.5702C770.342 94.3841 772.005 95.1925 773.635 95.9969C777.898 98.1002 781.939 100.177 785.828 102.264C790.272 104.648 794.519 107.043 798.673 109.502C802.307 111.653 805.87 113.852 809.432 116.134C810.45 116.786 811.468 117.444 812.488 118.11C813.508 118.776 814.529 119.45 815.553 120.132C816.104 120.501 816.654 120.871 817.204 121.242C818.303 121.984 819.398 122.732 820.491 123.482C821.037 123.858 821.584 124.234 822.129 124.611C826.489 127.631 830.802 130.718 835.067 133.871C835.6 134.265 836.132 134.66 836.664 135.057C837.727 135.849 838.787 136.645 839.844 137.446C840.373 137.846 840.901 138.248 841.427 138.65C842.482 139.455 843.533 140.264 844.581 141.077C848.248 143.922 851.877 146.817 855.468 149.762C855.98 150.182 856.492 150.604 857.004 151.026C860.071 153.562 863.11 156.134 866.12 158.741C883.071 173.374 899.741 189.597 914.028 205.762C921.166 213.847 927.707 221.916 934.002 230.292C934.395 230.815 934.787 231.34 935.178 231.866C936.745 233.97 938.298 236.094 939.842 238.243C940.614 239.318 941.384 240.399 942.152 241.487C942.536 242.031 942.921 242.577 943.304 243.125C946.373 247.506 949.425 252.003 952.504 256.658C954.042 258.986 955.586 261.353 957.131 263.754C959.061 266.755 960.992 269.81 962.909 272.911C966.36 278.493 969.768 284.221 973.058 290.045C974.521 292.633 975.959 295.24 977.368 297.861C978.072 299.172 978.768 300.486 979.457 301.804C980.145 303.121 980.826 304.441 981.497 305.764C981.832 306.425 982.165 307.087 982.496 307.749C983.157 309.074 983.809 310.402 984.45 311.73C985.412 313.723 986.351 315.719 987.263 317.718C987.872 319.05 988.469 320.383 989.054 321.717C989.64 323.051 990.214 324.386 990.777 325.723C991.34 327.059 991.893 328.397 992.435 329.736C994.603 335.094 996.603 340.479 998.463 345.911C1001.25 354.06 1003.72 362.316 1005.97 370.749C1006.34 372.155 1006.71 373.565 1007.07 374.981C1007.79 377.813 1008.49 380.665 1009.17 383.541C1011.04 391.452 1012.75 399.541 1014.29 407.737C1014.57 409.228 1014.84 410.722 1015.11 412.219C1015.25 412.967 1015.38 413.716 1015.51 414.466C1015.77 415.966 1016.03 417.468 1016.28 418.974C1017.16 424.242 1017.96 429.541 1018.69 434.852C1019.21 438.646 1019.69 442.446 1020.13 446.246C1020.22 447.006 1020.3 447.766 1020.39 448.526C1020.56 450.046 1020.72 451.565 1020.87 453.084C1020.95 453.843 1021.03 454.602 1021.1 455.361C1021.18 456.12 1021.25 456.879 1021.32 457.638C1021.46 459.155 1021.6 460.671 1021.73 462.187C1021.79 462.945 1021.86 463.702 1021.92 464.46C1022.23 468.248 1022.49 472.032 1022.73 475.815C1022.82 477.329 1022.91 478.842 1022.99 480.355C1023.07 481.869 1023.14 483.382 1023.22 484.895C1023.88 499.153 1024.08 513.428 1023.97 527.864C1023.97 527.986 1023.97 528.108 1023.97 528.23L1023.93 532.833C1023.91 534.313 1023.88 535.795 1023.86 537.277C1023.85 537.757 1023.84 538.236 1023.83 538.716C1023.81 539.761 1023.79 540.807 1023.77 541.853C1023.76 542.294 1023.74 542.734 1023.73 543.175C1023.71 544.226 1023.68 545.277 1023.65 546.329C1023.61 547.509 1023.58 548.69 1023.54 549.871C1023.53 550.062 1023.52 550.252 1023.52 550.443C1023.47 551.698 1023.43 552.953 1023.37 554.209C1023.36 554.562 1023.35 554.915 1023.33 555.268C1023.32 555.616 1023.3 555.964 1023.29 556.311C1023.23 557.614 1023.16 558.917 1023.1 560.22C1023.09 560.325 1023.09 560.431 1023.08 560.537C1023.06 560.998 1023.03 561.459 1023.01 561.921C1022.95 563.002 1022.89 564.082 1022.83 565.163C1022.78 565.955 1022.73 566.748 1022.68 567.54C1022.61 568.583 1022.54 569.625 1022.46 570.668C1022.43 571.131 1022.4 571.594 1022.36 572.057C1022.34 572.322 1022.32 572.587 1022.3 572.852C1022.27 573.321 1022.23 573.789 1022.19 574.258C1022.16 574.719 1022.12 575.181 1022.08 575.642C1022.06 575.879 1022.04 576.116 1022.02 576.353C1021.98 576.887 1021.93 577.421 1021.89 577.955C1021.87 578.155 1021.85 578.356 1021.83 578.557C1021.79 579.08 1021.74 579.604 1021.69 580.128C1021.67 580.363 1021.65 580.598 1021.63 580.833C1021.59 581.264 1021.54 581.696 1021.5 582.127C1021.46 582.52 1021.43 582.913 1021.39 583.306C1021.36 583.564 1021.34 583.823 1021.31 584.081C1021.25 584.627 1021.2 585.174 1021.14 585.72C1021.12 585.938 1021.09 586.156 1021.07 586.374C1021.02 586.814 1020.97 587.255 1020.93 587.695C1020.88 588.096 1020.84 588.496 1020.79 588.896C1020.76 589.177 1020.73 589.458 1020.69 589.739C1020.64 590.16 1020.6 590.581 1020.55 591.002C1020.5 591.35 1020.46 591.699 1020.42 592.047C1020.37 592.44 1020.32 592.833 1020.27 593.226C1020.23 593.531 1020.2 593.836 1020.16 594.141C1020.1 594.566 1020.05 594.992 1019.99 595.417C1019.96 595.689 1019.92 595.961 1019.88 596.233C1019.82 596.727 1019.75 597.22 1019.68 597.713C1019.48 599.129 1019.28 600.544 1019.07 601.957C1019.06 602.007 1019.05 602.057 1019.04 602.107C1017.77 610.486 1016.19 618.793 1014.34 626.983C1014 628.472 1013.66 629.957 1013.31 631.438C1012.78 633.66 1012.23 635.873 1011.67 638.075C1011.29 639.543 1010.91 641.008 1010.51 642.467C1010.32 643.196 1010.12 643.924 1009.92 644.651C1009.32 646.832 1008.71 649.003 1008.08 651.161C1006.91 655.15 1005.69 659.097 1004.43 662.999C1003.64 665.431 1002.84 667.846 1002.02 670.241C1001.78 670.934 1001.54 671.625 1001.3 672.314C1001.06 673.004 1000.82 673.692 1000.58 674.379C999.392 677.746 998.171 681.075 996.916 684.377C996.753 684.806 996.589 685.234 996.425 685.662C996.353 685.85 996.281 686.037 996.209 686.224C996.068 686.591 995.925 686.957 995.783 687.323C995.658 687.646 995.533 687.969 995.407 688.292C995.242 688.714 995.075 689.135 994.909 689.557C994.829 689.758 994.751 689.96 994.672 690.161C994.499 690.596 994.325 691.03 994.151 691.465C994.05 691.718 993.949 691.972 993.847 692.225C993.697 692.599 993.546 692.971 993.395 693.344C993.275 693.641 993.155 693.938 993.034 694.234C992.855 694.674 992.675 695.113 992.494 695.553C992.422 695.726 992.351 695.9 992.279 696.074C992.124 696.449 991.969 696.824 991.813 697.198C991.676 697.527 991.54 697.857 991.402 698.185C991.272 698.496 991.141 698.805 991.01 699.115C990.872 699.444 990.734 699.772 990.594 700.1C990.465 700.406 990.335 700.711 990.205 701.016C990.032 701.422 989.858 701.828 989.683 702.233C989.579 702.476 989.475 702.718 989.37 702.961C989.203 703.348 989.035 703.735 988.867 704.122C988.769 704.346 988.671 704.57 988.573 704.795C988.383 705.229 988.193 705.664 988.002 706.099C987.878 706.38 987.753 706.66 987.629 706.941C987.49 707.254 987.351 707.566 987.212 707.879C987.028 708.29 986.845 708.702 986.66 709.113C986.583 709.284 986.506 709.456 986.428 709.627C986.228 710.071 986.028 710.515 985.826 710.959C985.689 711.261 985.552 711.562 985.414 711.864C985.263 712.194 985.113 712.524 984.962 712.853C984.849 713.099 984.735 713.344 984.622 713.59C984.431 714.003 984.24 714.417 984.048 714.831C983.888 715.174 983.728 715.517 983.567 715.86C983.444 716.125 983.32 716.39 983.196 716.654C983.099 716.86 983.003 717.066 982.906 717.272C982.705 717.699 982.503 718.126 982.301 718.553C982.08 719.017 981.86 719.481 981.637 719.946C981.541 720.147 981.445 720.348 981.348 720.549C981.146 720.97 980.943 721.391 980.739 721.813C980.623 722.053 980.508 722.294 980.391 722.534C979.892 723.564 979.389 724.595 978.881 725.628C978.711 725.972 978.541 726.316 978.371 726.66C977.932 727.547 977.489 728.435 977.043 729.325C975.86 731.685 974.653 734.058 973.417 736.445L972.357 738.482C970.751 741.557 969.1 744.656 967.411 747.768C967.156 748.238 966.901 748.707 966.644 749.177C966.005 750.347 965.36 751.519 964.711 752.692C964.657 752.789 964.604 752.886 964.551 752.982C964.247 753.529 963.943 754.076 963.637 754.623C963.475 754.913 963.312 755.203 963.149 755.493C962.124 757.324 961.086 759.156 960.037 760.988C959.942 761.154 959.847 761.321 959.752 761.487C959.474 761.971 959.195 762.453 958.916 762.936C958.744 763.234 958.572 763.532 958.399 763.83C958.201 764.172 958.002 764.515 957.802 764.857C957.655 765.111 957.507 765.364 957.359 765.617C956.701 766.744 956.039 767.87 955.373 768.995C955.174 769.331 954.974 769.667 954.774 770.003C954.565 770.355 954.355 770.707 954.145 771.058C953.979 771.337 953.812 771.616 953.645 771.894C952.989 772.99 952.328 774.083 951.665 775.175C951.496 775.453 951.327 775.731 951.157 776.009C950.923 776.393 950.687 776.776 950.452 777.16C950.296 777.414 950.14 777.669 949.983 777.923C949.707 778.372 949.43 778.821 949.152 779.269C948.999 779.516 948.846 779.763 948.693 780.01C948.006 781.116 947.315 782.219 946.622 783.318C946.432 783.62 946.242 783.922 946.052 784.223C945.822 784.585 945.592 784.946 945.362 785.307C945.228 785.518 945.096 785.729 944.962 785.939C944.656 786.418 944.349 786.896 944.043 787.373C943.889 787.612 943.735 787.85 943.582 788.089C942.052 790.461 940.51 792.814 938.957 795.142C938.762 795.434 938.568 795.726 938.373 796.016C937.704 797.015 937.031 798.007 936.358 798.995C936.163 799.282 935.969 799.57 935.773 799.856C935.344 800.484 934.915 801.109 934.484 801.732L933.148 803.655C930.506 807.436 927.838 811.133 925.145 814.751C925.022 814.917 924.898 815.083 924.774 815.249C923.982 816.31 923.188 817.364 922.391 818.411C922.222 818.633 922.053 818.855 921.884 819.076C921.64 819.396 921.396 819.715 921.151 820.033C920.932 820.318 920.713 820.603 920.494 820.887C920.244 821.21 919.995 821.534 919.745 821.856C919.596 822.048 919.447 822.238 919.299 822.429C918.967 822.854 918.636 823.278 918.303 823.701C918.154 823.892 918.003 824.083 917.853 824.273C917.561 824.644 917.269 825.015 916.976 825.384C916.813 825.59 916.648 825.796 916.484 826.002C916.175 826.39 915.866 826.777 915.556 827.163C915.424 827.328 915.291 827.493 915.158 827.658C914.813 828.087 914.468 828.515 914.122 828.941C914.015 829.073 913.908 829.204 913.802 829.336C913.483 829.728 913.164 830.119 912.844 830.509C912.657 830.737 912.47 830.965 912.283 831.193C912.011 831.524 911.738 831.855 911.465 832.184C911.267 832.423 911.069 832.662 910.871 832.9C910.616 833.207 910.361 833.514 910.105 833.819C909.918 834.043 909.731 834.267 909.544 834.49C909.232 834.861 908.92 835.231 908.607 835.6C908.456 835.78 908.305 835.959 908.153 836.138C907.859 836.484 907.565 836.828 907.27 837.173C907.097 837.376 906.924 837.579 906.751 837.781C906.526 838.043 906.302 838.304 906.077 838.564C905.794 838.892 905.511 839.219 905.228 839.545C904.965 839.848 904.702 840.15 904.439 840.451C904.28 840.633 904.122 840.815 903.963 840.996C903.627 841.379 903.291 841.76 902.955 842.141C902.793 842.324 902.632 842.507 902.47 842.689C902.23 842.961 901.989 843.231 901.748 843.502C901.513 843.765 901.279 844.028 901.044 844.29C900.823 844.536 900.603 844.783 900.382 845.028C900.098 845.344 899.814 845.659 899.529 845.973C899.427 846.085 899.325 846.196 899.223 846.308C898.862 846.707 898.5 847.104 898.137 847.5C897.963 847.69 897.789 847.88 897.614 848.07C897.34 848.368 897.066 848.665 896.792 848.962C896.603 849.166 896.414 849.37 896.224 849.574C895.449 850.409 894.672 851.24 893.892 852.064C893.762 852.203 893.631 852.34 893.5 852.478C893.146 852.852 892.791 853.224 892.436 853.596C892.363 853.672 892.29 853.749 892.217 853.825C891.339 854.742 890.459 855.654 889.577 856.558C880.706 865.688 871.344 874.31 861.537 882.386C860.992 882.834 860.446 883.281 859.898 883.726C858.256 885.062 856.6 886.382 854.933 887.687C853.822 888.557 852.706 889.421 851.584 890.277C849.339 891.99 847.073 893.675 844.787 895.333C843.644 896.161 842.496 896.983 841.343 897.798C840.189 898.612 839.03 899.419 837.867 900.22C818.292 913.758 795.567 926.824 772.847 939.878L772.848 939.875C775.318 937.819 777.787 935.765 780.252 933.711C782.716 931.657 785.176 929.604 787.626 927.555C802.323 915.257 816.654 903.071 829.509 891.336C831.33 889.675 833.119 888.021 834.883 886.377C836.153 885.192 837.41 884.011 838.652 882.833C840.572 881.011 842.458 879.197 844.313 877.387C855.274 866.689 865.135 856.144 874.318 845.186C875.14 844.206 875.956 843.223 876.766 842.237C879.198 839.279 881.582 836.294 883.919 833.297C886.256 830.299 888.547 827.287 890.793 824.275C897.53 815.239 903.863 806.194 909.838 797.474C910.502 796.506 911.161 795.542 911.817 794.58C912.473 793.618 913.125 792.658 913.774 791.699C915.072 789.781 916.356 787.865 917.633 785.939C918.271 784.977 918.907 784.011 919.542 783.042C922.715 778.194 925.852 773.239 929.025 767.972C929.977 766.391 930.933 764.783 931.893 763.141C933.174 760.951 934.465 758.702 935.769 756.379C936.748 754.637 937.734 752.853 938.73 751.022C939.395 749.802 940.064 748.561 940.738 747.298C943.01 743.004 945.234 738.686 947.411 734.344C948.137 732.896 948.857 731.446 949.572 729.993C950.644 727.814 951.705 725.63 952.754 723.439C953.453 721.979 954.146 720.516 954.835 719.051C955.867 716.852 956.888 714.648 957.896 712.438C958.232 711.702 958.567 710.965 958.9 710.227C959.234 709.49 959.566 708.751 959.896 708.013C964.527 697.667 968.894 687.2 972.993 676.624C978.836 661.407 983.651 646.762 987.367 632.476C988.136 629.519 988.859 626.576 989.534 623.647C989.698 622.936 989.859 622.225 990.017 621.515C991.125 616.545 992.095 611.613 992.923 606.71C993.396 603.908 993.823 601.116 994.208 598.325C994.304 597.628 994.397 596.93 994.488 596.233C994.943 592.746 995.334 589.258 995.667 585.756C995.8 584.355 995.923 582.952 996.039 581.546C996.154 580.139 996.261 578.729 996.359 577.315C996.408 576.608 996.456 575.9 996.501 575.19C996.727 571.644 996.903 568.068 997.036 564.447C997.063 563.723 997.088 562.997 997.111 562.269C997.181 560.086 997.235 557.886 997.277 555.666C997.319 553.445 997.348 551.204 997.365 548.939C997.393 545.165 997.389 541.326 997.359 537.407C997.288 527.999 997.074 518.131 996.763 508.305C996.278 492.947 995.554 477.692 994.77 464.46C994.718 463.582 994.667 462.714 994.615 461.854C993.297 440.441 991.85 424.904 989.526 411.415L989.299 410.116C987.153 398.048 984.271 387.551 981.451 376.902L980.248 372.325C977.069 360.06 974.119 347.282 969.46 334.856C965.786 325.046 961.046 315.459 956.541 306.936C956.053 306.013 955.569 305.101 955.088 304.204C954.385 302.893 953.691 301.61 953.012 300.36C952.334 299.111 951.669 297.894 951.011 296.698C950.179 295.184 949.356 293.704 948.529 292.233C944.782 285.575 940.92 279.131 935.422 270.75C928.783 260.638 919.764 247.706 910.109 235.471C909.001 234.066 907.885 232.669 906.762 231.288C906.709 231.222 906.655 231.155 906.601 231.089L905.539 229.79C897.342 219.825 888.882 210.723 880.654 202.313C879.604 201.24 878.558 200.177 877.516 199.126C877.166 198.772 876.816 198.421 876.467 198.07C875.43 197.028 874.399 195.995 873.374 194.974L871.294 192.909C868.149 189.795 865.069 186.779 862.028 183.872C861.801 183.655 861.574 183.438 861.347 183.222C860.212 182.14 859.081 181.075 857.954 180.025C854.508 176.817 851.096 173.76 847.676 170.873C845.908 169.381 844.139 167.933 842.361 166.535C842.201 166.409 842.039 166.284 841.879 166.158C841.378 165.767 840.878 165.38 840.377 164.997L839.382 164.243C838.895 163.878 838.408 163.517 837.921 163.159C831.884 158.727 825.759 154.84 820.005 151.248C818.906 150.562 817.821 149.886 816.753 149.22C815.377 148.362 814.029 147.519 812.716 146.688C812.537 146.575 812.358 146.463 812.18 146.35L810.554 145.31C809.983 144.943 809.419 144.577 808.864 144.213C808.097 143.709 807.346 143.207 806.609 142.71C806.298 142.5 805.988 142.291 805.682 142.083C805.536 141.983 805.392 141.883 805.247 141.784C804.897 141.544 804.549 141.306 804.206 141.068C804.006 140.93 803.807 140.792 803.609 140.654C803.326 140.457 803.045 140.261 802.766 140.066C802.311 139.747 801.862 139.428 801.418 139.114C800.916 138.76 800.42 138.41 799.932 138.062C799.414 137.693 798.903 137.328 798.399 136.967C797.678 136.45 796.969 135.944 796.274 135.447C792.962 133.077 789.939 130.944 787.049 129.182C784.116 127.395 781.317 125.992 778.493 124.643C777.026 123.943 775.553 123.256 774.051 122.54C773.485 122.27 772.914 121.998 772.339 121.717C772.082 121.591 771.824 121.463 771.565 121.335C771.458 121.282 771.349 121.23 771.241 121.176L771.167 121.139L770.058 120.578L768.857 119.954C768.739 119.891 768.621 119.827 768.502 119.764C768.262 119.636 768.022 119.507 767.78 119.376C767.642 119.301 767.504 119.226 767.366 119.15C767.134 119.023 766.901 118.895 766.667 118.765C766.518 118.682 766.368 118.599 766.219 118.516C766.004 118.395 765.788 118.273 765.572 118.15C764.854 117.743 764.127 117.325 763.392 116.894C763.259 116.816 763.126 116.738 762.992 116.659C761.859 115.992 760.708 115.3 759.544 114.59C759.331 114.46 759.117 114.329 758.903 114.198C758.672 114.056 758.441 113.913 758.209 113.77C756.546 112.746 754.857 111.692 753.154 110.623L750.375 108.877C749.456 108.299 748.534 107.719 747.612 107.141C739.948 102.321 732.167 97.6912 724.276 93.2577C721.86 91.9056 719.366 90.5379 716.813 89.1405C715.066 88.1839 713.291 87.2127 711.493 86.2245C711.079 85.9968 710.663 85.7676 710.247 85.538C709.521 85.1377 708.792 84.7346 708.059 84.328C707.589 84.0667 707.117 83.8031 706.644 83.5389C706.04 83.2015 705.434 82.8617 704.826 82.5194C703.944 82.0225 703.057 81.5224 702.168 81.0145C701.293 80.5146 700.416 80.0084 699.536 79.4969C699.27 79.3422 699.003 79.1879 698.736 79.0321L696.949 77.9803C695.786 77.2913 694.62 76.5909 693.449 75.8817C693.07 75.6524 692.691 75.4214 692.311 75.1903C690.996 74.3908 689.671 73.5831 688.335 72.7665C681.443 68.5557 674.207 64.1589 666.025 60.0184C654.562 54.2173 641.254 48.9184 643.698 48.5673C643.737 48.5617 643.78 48.5567 643.827 48.5536L643.979 48.5546Z" fill="#B0D195"/>
<path d="M947.792 566.027C952.48 542.668 955.448 521.727 957.734 522.619C960.021 523.52 961.622 546.252 960.158 572.67C958.695 599.089 954.161 629.213 948.078 652.613C941.995 676.014 934.351 692.715 924.335 709.588C914.319 726.461 901.931 743.508 887.078 760.83C872.226 778.153 854.896 795.741 836.505 811.048C818.114 826.354 798.659 839.392 774.94 852.284C751.22 865.171 723.24 877.919 693.261 886.785C663.281 895.651 631.306 900.617 606.723 902.904C582.14 905.191 564.954 904.782 542.298 905.186C519.642 905.589 491.52 906.793 465.336 904.379C439.152 901.965 414.912 895.923 392.484 889.972C370.057 884.021 349.458 878.161 328.855 872.297L240.39 797.671C255.442 806.26 270.501 814.855 290.95 824.384C311.4 833.912 337.241 844.375 358.954 852.227C380.667 860.079 398.259 865.315 420.046 869.946C441.833 874.578 467.817 878.605 494.001 880.42C520.185 882.229 546.563 881.825 573.353 880.218C600.131 878.605 627.315 875.782 653.099 870.143C678.882 864.503 703.266 856.046 725.453 846.379C746.743 837.103 767.263 826.124 786.814 813.548C806 801.266 824.386 787.566 842.377 770.652C860.368 753.739 877.954 733.593 892.543 711.438C907.133 689.281 918.727 665.119 927.72 640.141C936.713 615.168 943.11 589.387 947.792 566.027ZM67.0206 286.566C66.5304 288.397 65.9166 291.025 65.1417 294.812C62.7006 306.766 58.6579 330.266 57.0343 350.521C55.4108 370.764 56.2115 387.764 57.0519 407.028C57.898 426.292 58.7836 447.815 61.6935 469.533C64.5977 491.234 69.5259 513.126 75.1857 534.879C80.8454 556.632 87.2493 578.258 96.3107 600.005C105.372 621.752 117.091 643.632 129.217 663.173C141.343 682.713 153.881 699.91 166.412 717.111C179.996 738.801 193.579 760.496 204.436 776.667C215.292 792.837 223.416 803.478 231.54 814.124C212.629 798.547 193.722 782.975 176.405 764.921C159.089 746.867 143.366 726.323 130.24 708.193C117.114 690.064 106.59 674.36 97.9913 659.658C89.3931 644.957 82.7266 631.257 76.0607 615.415C68.9142 598.362 62.5557 580.983 57.006 563.337C51.2777 545.075 46.4864 526.548 43.1534 510.096C39.8262 493.643 37.9632 479.268 36.3624 462.147C34.7617 445.032 33.4289 425.163 32.9601 412.616C32.4913 400.069 32.8919 394.826 33.2921 389.59C35.293 379.923 37.2885 370.256 39.8839 360.187C42.3769 350.543 45.2446 341.001 48.4816 331.584C51.2828 323.531 53.6785 317.891 55.2736 313.662C56.8743 309.434 57.6752 306.611 59.8761 301.576C61.9018 296.93 65.1206 290.395 67.0206 286.566ZM960.124 388.702C961.834 387.265 966.373 407.554 969.889 430.739C973.405 453.927 975.891 480.012 978.39 506.091C975.188 494.857 971.986 483.612 969.03 472.01C966.075 460.408 963.371 448.448 960.661 436.494C960.539 433.967 960.417 431.439 960.299 428.94L959.101 427.053C959.201 424.535 959.3 422.018 959.416 419.648C959.495 418.023 959.583 416.468 959.682 415.029C959.114 400.751 958.964 389.687 960.124 388.702ZM401.778 0.0673828C406.949 -0.0200197 412.252 -0.0176236 417.743 0.0458984C419.116 0.0617784 420.5 0.0814549 421.898 0.104492C423.295 0.127174 424.705 0.154012 426.126 0.183594C430.39 0.272347 434.756 0.392568 439.189 0.553711C444.36 0.741711 449.622 0.98468 454.918 1.29395C460.97 1.64741 467.067 2.08767 473.121 2.63379C473.878 2.70203 474.634 2.77218 475.389 2.84375C476.9 2.98695 478.407 3.13698 479.91 3.29395C481.413 3.45088 482.911 3.61487 484.403 3.78613C487.388 4.12864 490.348 4.5001 493.275 4.90332C494.738 5.10493 496.192 5.3152 497.639 5.53223C500.532 5.96632 503.393 6.43002 506.227 6.92188C511.186 7.78265 516.062 8.72854 520.88 9.74414C522.257 10.0343 523.629 10.3295 524.997 10.6309C527.049 11.0829 529.092 11.5472 531.127 12.0225C535.198 12.973 539.24 13.9687 543.27 14.999C544.613 15.3424 545.955 15.6891 547.296 16.04C551.32 17.0931 555.336 18.1788 559.362 19.2881C560.704 19.6578 562.048 20.0312 563.392 20.4062C575.485 23.7824 587.623 27.381 599.43 31.3066C605.733 33.4025 611.942 35.5929 617.999 37.8906C619.505 38.462 621.003 39.039 622.489 39.624C623.111 39.8688 623.732 40.1152 624.351 40.3623C625.487 40.8166 626.618 41.2761 627.743 41.7383C629.068 42.2822 630.385 42.8303 631.694 43.3848C632.906 43.8976 634.111 44.415 635.311 44.9365C650.306 51.4549 664.428 58.6373 678.551 66.1533C692.108 73.3686 705.67 80.8918 718.397 88.6377C722.639 91.2197 726.789 93.8267 730.816 96.4551C731.319 96.7838 731.821 97.113 732.32 97.4424C734.319 98.7602 736.288 100.085 738.234 101.419C748.456 108.422 758.065 115.699 768.05 123.786C769.001 124.556 769.956 125.334 770.914 126.119C772.831 127.689 774.765 129.291 776.723 130.928C779.661 133.382 782.654 135.915 785.677 138.511C787.692 140.241 789.721 142.001 791.757 143.783C795.83 147.348 799.931 151.008 804.006 154.727C811.137 161.234 818.188 167.921 824.871 174.595C826.781 176.503 828.661 178.411 830.51 180.314C831.435 181.266 832.352 182.218 833.262 183.168C839.631 189.819 845.641 196.421 851.313 202.891C852.123 203.815 852.926 204.737 853.723 205.655C857.706 210.248 861.519 214.768 865.17 219.184C868.09 222.716 870.907 226.183 873.635 229.606C879.773 237.31 885.463 244.8 890.878 252.36C892.081 254.04 893.271 255.724 894.449 257.414C895.038 258.259 895.624 259.105 896.207 259.953C897.101 261.253 897.988 262.56 898.87 263.869C899.715 265.122 900.557 266.378 901.392 267.639C902.529 269.356 903.659 271.081 904.78 272.811C908.706 278.865 912.542 284.987 916.345 291.131C918.518 294.642 920.68 298.161 922.843 301.68L934.849 357.329C922.043 335.553 909.236 313.777 891.834 290.187C874.97 267.339 853.786 242.783 830.831 218.54L828.604 216.194C824.376 211.755 820.092 207.328 815.764 202.938C815.622 202.794 815.48 202.65 815.338 202.506C814.049 201.2 812.755 199.898 811.458 198.6C792.728 179.841 773.277 161.931 754.175 146.84C741.737 137.012 729.447 128.381 717.452 120.6C716.956 120.277 716.459 119.957 715.963 119.638C704.363 112.165 693.048 105.475 682.152 99.2549C661.189 87.296 641.773 77.0667 620.716 68.0869C620.109 67.8281 619.5 67.5702 618.891 67.3135C617.839 66.8704 616.782 66.4292 615.721 65.9922C592.71 56.5157 567.504 48.4564 545.693 42.2002L541.643 41.0605C535.947 39.4585 530.458 37.9874 525.032 36.6533C523.686 36.3222 522.343 35.9996 521.002 35.6855C509.342 32.955 497.813 30.8743 484.978 29.5215L482.869 29.3066C481.456 29.168 480.027 29.0386 478.583 28.917C477.14 28.7954 475.682 28.6815 474.212 28.5762C471.272 28.3655 468.284 28.1868 465.266 28.0371C463.756 27.9623 462.239 27.8956 460.717 27.835C459.195 27.7744 457.667 27.7199 456.137 27.6729C451.545 27.5317 446.923 27.4507 442.332 27.4189C440.802 27.4084 439.275 27.4031 437.753 27.4033C434.71 27.4037 431.689 27.4245 428.708 27.4639C427.218 27.4836 425.738 27.5077 424.27 27.5361C421.333 27.5929 418.445 27.6674 415.623 27.7549C414.212 27.7986 412.817 27.8451 411.442 27.8955C389.431 28.702 372.223 30.3156 352.22 34.1465C332.21 37.9774 309.399 44.0255 288.989 51.6816C268.586 59.3435 250.577 68.6193 233.375 78.499C216.167 88.3787 199.759 98.8632 185.152 110.154C184.254 110.849 183.361 111.547 182.477 112.247C181.94 112.672 181.406 113.098 180.875 113.524C170.175 122.109 160.574 130.98 152.66 138.851C151.73 139.775 150.822 140.685 149.94 141.58C149.328 142.2 148.729 142.814 148.141 143.418C138.536 153.292 132.133 160.96 123.729 172.251C122.816 173.478 121.88 174.749 120.922 176.057C120.584 176.518 120.243 176.985 119.9 177.456C119.643 177.809 119.384 178.164 119.124 178.521C118.24 179.739 117.339 180.986 116.425 182.258C109.633 191.705 102.073 202.544 94.5148 213.383L31.1876 305.102C32.9563 300.257 34.7259 295.414 36.5392 290.561C36.7057 290.115 36.8719 289.668 37.0392 289.223C37.3225 288.468 37.6088 287.713 37.8947 286.957C38.0315 286.595 38.1683 286.233 38.3058 285.871C38.5208 285.305 38.7375 284.739 38.9542 284.173C39.1379 283.693 39.321 283.212 39.506 282.731C39.7106 282.2 39.9178 281.669 40.1241 281.138C40.3194 280.635 40.5141 280.13 40.7111 279.627C40.9293 279.069 41.1499 278.511 41.3702 277.953C41.5734 277.438 41.7764 276.922 41.9816 276.407C42.2039 275.849 42.4287 275.29 42.6534 274.731C42.8844 274.157 43.117 273.582 43.3507 273.007C43.5357 272.552 43.7226 272.096 43.9093 271.641C44.1487 271.057 44.3886 270.471 44.631 269.887C44.8463 269.367 45.0645 268.848 45.2823 268.328C45.5228 267.754 45.7642 267.179 46.0079 266.604C46.5866 265.24 47.1735 263.873 47.7716 262.504C48.3772 261.118 48.9927 259.729 49.6202 258.339C49.7594 258.03 49.8998 257.722 50.0402 257.413C50.4794 256.447 50.9233 255.478 51.3741 254.51C51.6313 253.957 51.8904 253.404 52.1515 252.851C52.907 251.248 53.6799 249.642 54.4679 248.033C54.5831 247.798 54.6997 247.563 54.8156 247.327C54.9784 246.996 55.1406 246.664 55.3048 246.333C55.4157 246.109 55.5283 245.886 55.6398 245.662C55.7809 245.379 55.9225 245.095 56.0646 244.812C56.1792 244.583 56.2941 244.354 56.4093 244.125C56.5626 243.82 56.7168 243.516 56.8712 243.211C57.3131 242.339 57.76 241.466 58.2101 240.593C58.2941 240.43 58.3787 240.267 58.463 240.104C58.9542 239.153 59.4499 238.202 59.9503 237.25C59.9819 237.19 60.0134 237.129 60.045 237.069C60.4104 236.375 60.7806 235.682 61.1505 234.987C61.4363 234.451 61.7224 233.913 62.0109 233.376C62.2682 232.897 62.5268 232.418 62.7863 231.938C63.1506 231.265 63.5176 230.592 63.8859 229.919C64.1028 229.522 64.32 229.125 64.5382 228.729C64.8939 228.082 65.2514 227.435 65.6105 226.788C65.8871 226.29 66.165 225.791 66.4435 225.293C66.7217 224.795 67.0014 224.297 67.2814 223.8C67.6522 223.141 68.0247 222.481 68.3986 221.822C68.6933 221.303 68.9897 220.783 69.2863 220.264C69.5351 219.828 69.7833 219.391 70.0333 218.955C70.4474 218.234 70.8641 217.512 71.2814 216.791C71.5075 216.4 71.733 216.008 71.9601 215.617C72.3931 214.872 72.8297 214.128 73.2657 213.383C73.459 213.053 73.6511 212.722 73.8448 212.392C74.4317 211.393 75.0218 210.394 75.6134 209.396C75.6567 209.323 75.6999 209.25 75.7433 209.177C76.2842 208.265 76.8268 207.354 77.3712 206.443C77.4867 206.25 77.6013 206.056 77.7169 205.863C78.3714 204.771 79.029 203.679 79.6876 202.589L81.7091 199.257C82.0042 198.772 82.3011 198.289 82.5968 197.805C87.7146 189.429 92.9221 181.156 98.2423 173.199C99.7203 170.989 101.208 168.803 102.703 166.646C104.767 163.669 106.847 160.748 108.946 157.894C109.309 157.401 109.671 156.91 110.034 156.422C111.124 154.957 112.219 153.511 113.318 152.085C114.052 151.134 114.787 150.191 115.525 149.259C116.209 148.394 116.895 147.537 117.583 146.688C117.835 146.378 118.089 146.068 118.341 145.76C118.414 145.67 118.487 145.579 118.561 145.489C118.777 145.225 118.994 144.962 119.211 144.699C119.357 144.522 119.503 144.345 119.65 144.169C119.834 143.946 120.019 143.723 120.204 143.501C120.442 143.215 120.682 142.931 120.92 142.647C121 142.553 121.079 142.457 121.159 142.362C121.314 142.179 121.469 141.996 121.624 141.813C122.763 140.468 123.906 139.142 125.049 137.835C125.198 137.665 125.346 137.494 125.495 137.324C126.03 136.716 126.565 136.111 127.1 135.51C127.21 135.386 127.321 135.261 127.432 135.138C127.995 134.507 128.559 133.879 129.122 133.257C130.526 131.706 131.931 130.181 133.332 128.68C133.647 128.342 133.964 128.006 134.279 127.671C134.682 127.242 135.083 126.813 135.485 126.388C135.82 126.034 136.155 125.683 136.488 125.332C136.822 124.981 137.156 124.631 137.489 124.282C137.827 123.929 138.165 123.576 138.502 123.226C138.972 122.736 139.442 122.249 139.911 121.765C140.121 121.548 140.331 121.331 140.54 121.115C141.053 120.586 141.565 120.06 142.076 119.536C142.27 119.337 142.464 119.138 142.657 118.939C142.908 118.684 143.159 118.429 143.408 118.174C146.024 115.506 148.607 112.902 151.142 110.35C153.538 107.935 155.892 105.566 158.231 103.242C158.656 102.82 159.079 102.398 159.503 101.979C159.647 101.836 159.793 101.695 159.937 101.553C160.466 101.031 160.995 100.512 161.525 99.9951C161.778 99.7476 162.033 99.5013 162.286 99.2549C162.734 98.8198 163.181 98.3847 163.629 97.9531C163.807 97.7823 163.986 97.6127 164.163 97.4424C164.649 96.9768 165.134 96.5122 165.621 96.0508C165.899 95.7873 166.179 95.5258 166.458 95.2637C166.858 94.8872 167.258 94.5104 167.66 94.1367C168.222 93.6147 168.784 93.0946 169.35 92.5781C169.468 92.4699 169.587 92.3619 169.706 92.2539C169.898 92.0798 170.09 91.9059 170.281 91.7324C170.442 91.5875 170.602 91.4423 170.763 91.2979C170.954 91.1257 171.146 90.9537 171.338 90.7822C171.5 90.6379 171.661 90.4935 171.823 90.3496C172.016 90.1785 172.209 90.0074 172.402 89.8369C172.543 89.7131 172.684 89.5893 172.824 89.4658C173.04 89.277 173.256 89.0885 173.472 88.9004C173.633 88.7598 173.795 88.6187 173.957 88.4785C174.164 88.3 174.371 88.1221 174.578 87.9443C174.727 87.8171 174.876 87.6903 175.025 87.5635C175.226 87.3913 175.428 87.2183 175.631 87.0469C175.791 86.9112 175.953 86.7768 176.114 86.6416C176.317 86.471 176.521 86.2998 176.725 86.1299C176.874 86.0059 177.024 85.8824 177.173 85.7588C177.384 85.5841 177.595 85.4083 177.807 85.2344C178.035 85.0475 178.264 84.8618 178.493 84.6758C178.64 84.5564 178.787 84.4364 178.935 84.3174C179.052 84.2226 179.17 84.1278 179.288 84.0332C179.888 83.5519 180.492 83.0732 181.102 82.5977C181.272 82.4648 181.443 82.3326 181.614 82.2002C181.837 82.0277 182.06 81.8544 182.284 81.6826C183.035 81.1078 183.792 80.5367 184.559 79.9707C184.954 79.6786 185.352 79.3874 185.752 79.0977C186.432 78.6052 187.12 78.1169 187.814 77.6309C187.898 77.572 187.981 77.5119 188.066 77.4531C188.313 77.2807 188.562 77.1101 188.811 76.9385C188.966 76.8314 189.121 76.723 189.276 76.6162C189.479 76.4773 189.684 76.3397 189.888 76.2012C190.114 76.0477 190.34 75.8932 190.568 75.7402C190.783 75.5954 191 75.452 191.217 75.3076C191.362 75.2109 191.508 75.1132 191.653 75.0166C191.916 74.8428 192.18 74.6693 192.444 74.4961C192.608 74.3891 192.772 74.2816 192.936 74.1748C193.184 74.0136 193.433 73.8532 193.683 73.6924C193.848 73.5858 194.015 73.4794 194.181 73.373C194.428 73.2146 194.677 73.0555 194.926 72.8975C195.097 72.7888 195.269 72.6798 195.442 72.5713C195.679 72.4216 195.918 72.2724 196.157 72.123C196.379 71.9847 196.601 71.8461 196.824 71.708C197.029 71.5812 197.235 71.4547 197.441 71.3281C197.638 71.2068 197.836 71.0851 198.034 70.9639C198.279 70.8144 198.524 70.664 198.771 70.5146C199.005 70.3725 199.241 70.2309 199.478 70.0889C199.682 69.9658 199.888 69.8427 200.094 69.7197C200.277 69.6103 200.461 69.5 200.645 69.3906C200.938 69.216 201.234 69.0417 201.53 68.8672C201.701 68.7665 201.873 68.6661 202.045 68.5654C202.302 68.4147 202.56 68.2631 202.819 68.1123C203.72 67.5886 204.632 67.0647 205.556 66.54C207.201 65.6057 208.885 64.6703 210.609 63.7275C211.107 63.4549 211.609 63.1819 212.114 62.9082C212.628 62.6299 213.145 62.35 213.666 62.0703C214.145 61.8134 214.627 61.557 215.111 61.2988C215.622 61.027 216.135 60.7529 216.652 60.4795C217.389 60.0901 218.134 59.6997 218.885 59.3066C219.161 59.1621 219.438 59.0161 219.716 58.8711C220.529 58.4472 221.351 58.0216 222.181 57.5928C222.472 57.4422 222.764 57.289 223.058 57.1377C223.692 56.8111 224.332 56.4852 224.977 56.1553C227.702 54.7598 230.517 53.332 233.432 51.8662C235.572 50.7904 237.766 49.694 240.003 48.5811C240.692 48.2383 241.386 47.8944 242.083 47.5488C244.028 46.5849 246.004 45.6102 248.005 44.6299C248.174 44.547 248.343 44.4628 248.513 44.3799C249.26 44.0145 250.01 43.6491 250.764 43.2822C251.401 42.9719 252.04 42.6597 252.682 42.3486C253.28 42.0584 253.882 41.7702 254.484 41.4795C255.271 41.0997 256.06 40.7181 256.853 40.3379C257.288 40.1291 257.725 39.9217 258.161 39.7129C259.104 39.2621 260.049 38.8097 260.998 38.3594C261.407 38.1651 261.818 37.9724 262.229 37.7783C263.151 37.3422 264.075 36.9055 265.002 36.4707C265.624 36.179 266.248 35.8894 266.871 35.5986C267.649 35.2358 268.428 34.8728 269.208 34.5117C269.886 34.1981 270.565 33.8862 271.243 33.5742C271.884 33.2795 272.525 32.9835 273.167 32.6904C273.918 32.3475 274.671 32.0075 275.423 31.667C276.119 31.352 276.814 31.0362 277.51 30.7236C278.552 30.2554 279.595 29.7892 280.637 29.3271C281.892 28.7706 283.147 28.219 284.4 27.6729C284.504 27.6273 284.609 27.5816 284.713 27.5361C285.206 27.3216 285.699 27.1082 286.191 26.8955C286.423 26.7948 286.656 26.693 286.889 26.5928C287.344 26.3965 287.8 26.2024 288.255 26.0078C288.495 25.9049 288.735 25.8006 288.976 25.6982C290.11 25.2149 291.242 24.7384 292.369 24.2666C294.698 23.2924 297.012 22.343 299.303 21.4258C312.402 16.1788 324.768 11.9515 336.744 8.71094C337.374 8.54042 338.004 8.37306 338.632 8.20801C343.658 6.88718 348.619 5.74048 353.539 4.7666C355.384 4.40144 357.224 4.06099 359.059 3.74414C359.67 3.63857 360.281 3.5348 360.892 3.43457C361.503 3.33429 362.114 3.23663 362.724 3.1416C363.944 2.95158 365.163 2.77223 366.381 2.60254C367.599 2.43284 368.818 2.27333 370.036 2.12305C371.255 1.97277 372.474 1.83196 373.694 1.7002C374.915 1.56843 376.137 1.44521 377.361 1.33105C378.586 1.2169 379.812 1.1121 381.042 1.01465C382.272 0.917197 383.505 0.827754 384.742 0.746094C386.598 0.623609 388.463 0.518232 390.34 0.428711C394.095 0.249659 397.9 0.132916 401.778 0.0673828ZM68.8458 282.242C69.2688 282.035 69.2685 282.035 67.4679 285.664C67.3289 285.944 67.1796 286.246 67.0206 286.566C68.0781 282.619 68.5606 282.384 68.8458 282.242Z" fill="#6DB33F"/>
<path d="M302.73 921.217C295.618 917.818 291.41 915.319 297.733 916.517V916.511C304.057 917.71 320.905 922.618 336.625 926.576C352.346 930.533 366.949 933.552 379.863 936.196C392.783 938.834 404.012 941.093 412.993 942.038C421.979 942.982 428.715 942.601 435.461 942.233C445.94 946.006 456.419 949.78 468.401 953.179C480.378 956.566 493.86 959.585 505.465 961.849C517.07 964.113 526.801 965.622 536.531 967.131C518.192 967.131 499.845 967.131 484.313 966.567C470.549 966.066 456.81 964.995 443.133 963.358C430.213 961.849 417.115 959.959 403.823 956.756C390.532 953.553 377.055 949.025 364.701 944.871C352.353 940.724 341.119 936.95 330.491 932.923C321.089 929.389 311.827 925.484 302.73 921.217ZM762.043 857.289C777.603 848.546 803.285 833.462 802.96 835.79C802.623 838.133 776.277 857.89 759.328 870.637C742.378 883.385 734.824 889.13 727.273 894.868L727.292 894.81C721.197 899.372 714.783 903.817 708.818 907.8C698.479 914.724 687.873 921.238 677.026 927.324C665.959 933.557 653.415 940.194 640.86 946.825C626.3 946.421 611.743 946.024 594.376 946.882C577.009 947.741 556.836 949.883 557.467 948.121C558.112 946.356 579.556 940.688 595.708 936.15C611.863 931.611 622.726 928.194 633.319 924.3C643.913 920.406 654.244 916.033 663.334 911.205C672.424 906.384 680.291 901.1 688.672 895.697C697.35 890.139 706.075 884.655 714.844 879.245C723.477 875.548 732.112 871.85 739.031 869.31C743.689 867.188 749.66 864.248 762.043 857.289ZM92.6349 659.047C91.9037 655.783 94.8192 664.193 99.6554 675.466C104.943 687.695 110.687 699.72 116.875 711.512C118.623 714.808 120.262 717.763 121.725 720.427C122.181 721.168 122.645 721.918 123.118 722.676C132.566 737.818 145.41 756.478 156.592 772.12C158.019 774.116 159.421 776.064 160.784 777.949C163.599 781.43 166.397 784.765 169.163 787.935C181.574 802.158 193.369 813.111 213.544 828.901C232.768 843.956 259.606 863.407 286.8 883.069C289.617 884.814 291.289 885.691 292.542 886.253C291.525 885.842 290.509 885.43 289.495 885.018C289.935 885.336 290.376 885.655 290.816 885.973C288.658 884.955 286.501 883.934 284.346 882.914C276.427 879.662 268.739 876.391 261.834 873.045C254.781 869.628 248.539 866.128 241.269 861.411C234.35 857.623 227.705 853.735 221.457 849.697C201.128 836.562 184.993 821.872 172.576 809.982C163.089 800.942 153.88 791.608 144.964 781.996C139.795 776.406 134.723 770.722 129.756 764.949C123.856 753.07 117.962 741.185 113.309 727.584C110.152 718.37 107.566 708.368 105.359 700.053L102.103 692.224C97.7353 677.27 93.3614 662.327 92.6349 659.047ZM880.126 315.591C886.952 326.848 893.778 338.105 897.815 345.3C897.825 345.32 897.836 345.339 897.847 345.359C899.812 348.24 901.948 351.531 904.082 354.823C909.376 371.748 914.676 388.674 917.917 407.246C921.158 425.819 922.342 446.024 922.565 465.91C922.793 485.79 922.05 505.343 919.638 526.6C917.225 547.857 913.138 570.815 907.77 594.18C902.365 617.802 895.78 641.136 888.04 664.088C880.317 686.854 871.518 708.608 864.12 725.775C856.723 742.941 850.725 755.519 843.293 766.055C835.861 776.591 826.999 785.09 818.127 793.586L772.162 823.813C780.24 814.44 788.314 805.067 795.597 795.182C802.88 785.291 809.363 774.886 817.378 761.02C825.393 747.154 834.929 729.813 843.327 711.903C851.725 693.993 858.969 675.494 865.647 657.002C872.324 638.511 878.43 620.017 883.197 600.373C887.971 580.729 891.402 559.92 894.077 535.65C896.753 511.38 898.65 483.646 898.651 455.136C898.65 426.626 896.747 397.354 894.003 375.366C892.67 364.684 891.142 355.724 890.1 349.081C887.005 340.055 883.566 327.82 880.126 315.591ZM42.3038 513.154C41.5721 502.872 40.9087 498.73 42.9894 506.195C45.0762 513.661 49.9018 532.719 54.7267 551.787V563.67C54.7267 568.763 54.7264 575.556 55.1036 584.231C55.4752 592.906 56.2249 603.473 56.9738 614.032C55.1045 607.995 53.2286 601.963 51.548 595.171C49.8616 588.385 48.3636 580.837 47.2374 574.236C46.117 567.634 45.3676 561.97 44.5958 550.928C43.8241 539.885 43.0299 523.442 42.3038 513.154ZM443.287 46.7904C460.484 45.0277 481.014 44.1406 485.318 44.515C489.619 44.8955 477.697 46.5314 468.894 48.5473C460.09 50.5577 454.4 52.9376 446.163 55.5873C437.931 58.2257 427.147 61.1178 413.519 66.5326C399.89 71.9477 383.419 79.8637 366.948 87.7904C360.586 89.6742 354.221 91.5584 344.109 95.8959C334.001 100.234 320.154 107.032 305.176 115.328C288.33 124.675 271.962 134.874 256.136 145.883C238.168 158.332 218.33 173.42 202.042 187.943C185.755 202.465 173.028 216.419 161.983 230.567C150.938 244.715 141.578 259.061 132.031 274.523C122.484 289.984 112.753 306.588 104.893 322.804C97.0322 339.026 91.0403 354.863 85.798 371.656C80.5557 388.448 76.0681 406.176 72.1349 423.654C68.2018 441.126 64.8398 458.351 61.4669 475.576L55.3839 396.814C56.7273 383.72 58.065 370.63 60.3917 360.808C62.7128 350.987 66.0239 344.441 71.0431 335.132C76.9528 324.243 82.9827 313.419 89.131 302.664C95.8861 290.809 102.819 279.054 109.924 267.408C118.465 253.363 129.62 235.388 142.763 218.187C155.906 200.986 171.016 184.561 187.749 168.241C204.471 151.921 222.817 135.698 238.916 124.003C255.009 112.309 268.863 105.142 287.042 96.5297C305.216 87.9231 327.719 77.8705 347.002 70.5141C363.417 64.2152 380.216 58.9805 397.294 54.8441C412.243 51.1977 426.091 48.5532 443.287 46.7904ZM750.021 109.883L750.205 109.917C750.288 109.938 750.382 109.967 750.486 110.001C750.55 110.023 750.62 110.045 750.692 110.072C750.722 110.083 750.755 110.097 750.787 110.109C750.854 110.134 750.926 110.161 750.998 110.19C751.053 110.212 751.111 110.237 751.169 110.261C751.219 110.282 751.271 110.303 751.323 110.326C751.511 110.406 751.714 110.498 751.93 110.597C752.068 110.661 752.213 110.729 752.361 110.799C752.514 110.872 752.673 110.947 752.836 111.027C752.985 111.099 753.139 111.176 753.296 111.254C753.463 111.337 753.637 111.423 753.813 111.512C754.024 111.619 754.242 111.732 754.465 111.847C754.605 111.919 754.748 111.993 754.892 112.068C755.13 112.192 755.375 112.321 755.623 112.453C755.774 112.532 755.927 112.614 756.081 112.696C756.337 112.832 756.598 112.973 756.862 113.116C757.036 113.209 757.212 113.305 757.388 113.401C757.659 113.548 757.934 113.699 758.211 113.851C758.347 113.926 758.486 114.002 758.623 114.078C759.395 114.504 760.186 114.947 760.982 115.396C761.125 115.477 761.27 115.558 761.414 115.64C763.718 116.946 766.044 118.302 768.052 119.503C768.866 119.991 769.629 120.454 770.346 120.893C775.363 123.97 778.146 125.952 780.927 127.938L780.924 127.937L780.926 127.938L779.069 127.174L782.829 129.989C780.907 128.771 778.984 127.552 777.135 126.378L761.454 119.93C760.301 119.027 759.149 118.122 758.041 117.248C757.8 117.059 757.56 116.87 757.324 116.683C756.956 116.391 756.593 116.103 756.238 115.821C755.889 115.542 755.547 115.267 755.215 114.999C753.808 113.868 752.57 112.847 751.632 112.02C751.545 111.943 751.46 111.867 751.378 111.793C751.266 111.693 751.158 111.596 751.057 111.502C750.982 111.433 750.91 111.364 750.841 111.299C749.841 110.354 749.459 109.815 750.021 109.883ZM545.752 60.5072C550.428 60.2308 556.895 60.369 563.154 60.7895C569.42 61.2042 575.475 61.8955 582.421 62.725C589.896 63.5796 597.354 64.5982 604.785 65.7787C612.348 67.023 619.644 68.55 626.939 70.0766C631.654 71.7595 636.292 73.6566 640.837 75.7621C646.48 78.3948 653.632 82.1399 660.789 85.8842C657.211 84.6399 653.631 83.3894 648.475 81.932C643.313 80.4804 636.571 78.8158 629.963 77.2201C623.136 75.5426 616.278 73.9941 609.394 72.5766C601.311 70.9366 593.188 69.5012 585.033 68.2729C576.71 67.0286 568.591 66.0607 560.336 65.0815C552.082 64.1137 543.689 63.1465 539.486 62.6625C535.29 62.1786 535.29 62.1781 536.736 61.8324C539.693 61.104 542.712 60.66 545.752 60.5072Z" fill="#D2DD4B"/>
<path d="M959.249 431.477C964.766 449.508 970.294 467.545 974.628 486.245C978.961 504.945 982.106 524.307 983.187 547.984C984.267 571.661 983.272 599.636 980.122 624.373C977.309 646.95 972.174 669.172 964.801 690.68C957.929 710.773 949.479 729.48 938.674 749.758C927.869 770.042 914.702 791.898 899.523 812.896C884.345 833.895 867.154 854.035 847.373 873.973C827.224 894.216 805.792 913.122 783.212 930.567C761.225 947.487 739.643 961.584 719.256 973.065C698.869 984.541 679.677 993.407 661.491 1000.86C643.3 1008.31 626.115 1014.35 608.724 1017.78C591.338 1021.2 573.747 1022 554.961 1022.81C536.169 1023.62 516.182 1024.42 496.059 1023.75C475.331 1023.05 454.684 1020.77 434.293 1016.96C412.912 1012.99 390.392 1007.23 363.745 996.886C337.098 986.545 306.323 971.642 277.007 953.449C247.696 935.257 219.849 913.768 196.998 892.355C176.729 873.323 158.287 852.404 141.92 829.879C135.005 820.397 128.893 811.289 124.549 804.185C123.981 803.29 123.432 802.412 122.905 801.554C118.795 794.883 116.016 789.41 114.427 786.34C112.838 783.27 112.438 782.601 113.363 783.603C114.233 784.532 116.248 786.926 120.173 791.088C124.842 794.481 135.783 805.931 147.895 817.384C163.21 831.878 180.396 846.378 197.587 860.878C205.579 868.937 213.577 876.992 224.371 886.658C237.064 898.026 250.34 908.716 264.144 918.683C279.534 929.761 296.725 940.637 314.379 949.837C332.033 959.037 350.156 966.567 371.343 974.016C392.53 981.464 416.782 988.849 443.697 993.343C470.613 997.836 500.192 999.45 527.776 998.441C555.355 997.433 580.945 993.81 607.323 986.96C633.707 980.11 660.891 970.04 688.275 957.557C715.654 945.073 743.239 930.158 768.222 912.64C793.205 895.121 815.593 874.975 836.78 851.413C857.967 827.851 877.948 800.862 893.612 776.626C909.271 752.39 920.602 730.902 929.2 709.817C937.798 688.733 943.665 668.052 948.17 645.85C952.669 623.653 955.808 599.941 956.402 575.711C957.003 551.475 955.047 526.726 953.104 501.978L959.249 431.477ZM53.7471 558.439C53.6785 550.317 53.6848 550.312 56.0801 557.362C58.4755 564.414 63.2719 578.511 68.2686 592.204C73.2652 605.903 78.4616 619.194 83.6641 632.484C87.077 643.222 90.496 653.966 95.2695 666.582C100.037 679.198 106.161 693.693 110.997 706.822C115.834 719.957 119.384 731.726 122.671 741.727C125.958 751.739 128.983 759.977 132.013 768.215C116.297 748.352 100.575 728.489 89.7246 711.84C78.8681 695.203 72.8762 681.779 66.8848 668.356C64.4837 657.619 62.0884 646.886 59.9561 635.336C57.8179 623.791 55.9544 611.428 54.9482 597.118C53.9478 582.814 53.8157 566.562 53.7471 558.439ZM298.96 146.793C302.303 146.483 286.72 160.338 274.972 171.709C263.224 183.086 255.311 191.976 247.398 200.87C241.31 209.765 235.221 218.66 223.204 231.69C211.187 244.721 193.23 261.895 179.229 277.691C165.229 293.482 155.183 307.895 145.293 324.296C135.081 341.311 125.788 358.869 117.452 376.893C109.237 394.676 102.541 411.85 96.7559 430.711C90.9761 449.566 86.1053 470.121 83.3555 490.353C80.6056 510.585 79.9658 530.506 79.3369 550.427C75.7124 537.868 72.0817 525.304 69.0518 512.129C66.0218 498.942 63.5858 485.139 61.1504 471.342C65.5067 450.044 69.8639 428.746 77.9248 406.97C85.9914 385.194 97.7623 362.951 109.739 342.017C121.711 321.082 133.882 301.454 147.426 282.904C160.969 264.349 175.885 246.864 193.379 229.236C211.783 210.727 231.419 193.504 252.149 177.688C273.33 161.564 295.609 147.099 298.96 146.793ZM518.893 94.4785C547.58 94.2135 574.193 97.3648 601.561 102.82C628.928 108.276 657.044 116.024 684.485 126.463C711.927 136.896 738.688 150.008 763.883 166.334C789.072 182.654 812.694 202.189 832.749 221.851C852.798 241.512 869.287 261.307 884.356 281.309C899.438 301.304 913.113 321.502 920.545 334.436C927.982 347.357 929.195 353.014 930.796 356.038C932.408 359.074 934.42 359.478 935.826 370.383C937.233 381.294 938.039 402.701 938.84 424.114C931.345 407.558 923.849 391.007 913.993 372.745C904.149 354.489 891.948 334.533 877.805 312.918C863.661 291.303 847.579 268.024 830.485 249.312C813.397 230.607 795.309 216.464 774.396 201.924C753.495 187.378 729.769 172.434 699.618 159.91C669.461 147.386 632.872 137.282 595.083 130.818C557.288 124.355 518.293 121.532 481.704 124.354C445.116 127.183 410.939 135.663 379.655 146.724C348.372 157.784 319.975 171.415 291.585 185.051L342.735 129.608C348.852 127.99 354.97 126.377 369.285 121.797C383.606 117.223 406.131 109.681 432.777 104.064C459.424 98.4477 490.193 94.7493 518.893 94.4785Z" fill="#006F3A"/>
</svg>
