<?xml version="1.0" encoding="UTF-8" standalone="no"?>
<!-- Created with Inkscape (http://www.inkscape.org/) -->

<svg
   width="186.463mm"
   height="184.869mm"
   viewBox="0 0 186.463 184.869"
   version="1.1"
   id="svg5"
   xml:space="preserve"
   inkscape:version="1.2.2 (732a01da63, 2022-12-09)"
   sodipodi:docname="New Vector - Phambili Circles Only.svg"
   inkscape:export-filename="New Vector - Phambili Circles Only.pdf"
   inkscape:export-xdpi="600"
   inkscape:export-ydpi="600"
   xmlns:inkscape="http://www.inkscape.org/namespaces/inkscape"
   xmlns:sodipodi="http://sodipodi.sourceforge.net/DTD/sodipodi-0.dtd"
   xmlns="http://www.w3.org/2000/svg"
   xmlns:svg="http://www.w3.org/2000/svg"><sodipodi:namedview
     id="namedview7"
     pagecolor="#ffffff"
     bordercolor="#000000"
     borderopacity="0.25"
     inkscape:showpageshadow="2"
     inkscape:pageopacity="0.0"
     inkscape:pagecheckerboard="0"
     inkscape:deskcolor="#d1d1d1"
     inkscape:document-units="mm"
     showgrid="false"
     inkscape:zoom="0.70910507"
     inkscape:cx="349.7366"
     inkscape:cy="352.55706"
     inkscape:window-width="1366"
     inkscape:window-height="715"
     inkscape:window-x="-8"
     inkscape:window-y="-8"
     inkscape:window-maximized="1"
     inkscape:current-layer="layer1"
     inkscape:lockguides="false" /><defs
     id="defs2"><inkscape:path-effect
       effect="bspline"
       id="path-effect905"
       is_visible="true"
       lpeversion="1"
       weight="33.333333"
       steps="2"
       helper_size="0"
       apply_no_weight="true"
       apply_with_weight="true"
       only_selected="false" /><inkscape:path-effect
       effect="bspline"
       id="path-effect832"
       is_visible="true"
       lpeversion="1"
       weight="33.333333"
       steps="2"
       helper_size="0"
       apply_no_weight="true"
       apply_with_weight="true"
       only_selected="false" /><inkscape:path-effect
       effect="bspline"
       id="path-effect828"
       is_visible="true"
       lpeversion="1"
       weight="33.333333"
       steps="2"
       helper_size="0"
       apply_no_weight="true"
       apply_with_weight="true"
       only_selected="false" /><inkscape:path-effect
       effect="bspline"
       id="path-effect701"
       is_visible="true"
       lpeversion="1"
       weight="33.333333"
       steps="2"
       helper_size="0"
       apply_no_weight="true"
       apply_with_weight="true"
       only_selected="false" /><inkscape:path-effect
       effect="bspline"
       id="path-effect3100"
       is_visible="true"
       lpeversion="1"
       weight="33.333333"
       steps="2"
       helper_size="0"
       apply_no_weight="true"
       apply_with_weight="true"
       only_selected="false" /><inkscape:path-effect
       effect="bspline"
       id="path-effect3022"
       is_visible="true"
       lpeversion="1"
       weight="33.333333"
       steps="2"
       helper_size="0"
       apply_no_weight="true"
       apply_with_weight="true"
       only_selected="false" /><inkscape:path-effect
       effect="bspline"
       id="path-effect2547"
       is_visible="true"
       lpeversion="1"
       weight="33.333333"
       steps="2"
       helper_size="0"
       apply_no_weight="true"
       apply_with_weight="true"
       only_selected="false" /><inkscape:path-effect
       effect="bspline"
       id="path-effect2212"
       is_visible="true"
       lpeversion="1"
       weight="33.333333"
       steps="2"
       helper_size="0"
       apply_no_weight="true"
       apply_with_weight="true"
       only_selected="false" /><inkscape:path-effect
       effect="bspline"
       id="path-effect1935"
       is_visible="true"
       lpeversion="1"
       weight="33.333333"
       steps="2"
       helper_size="0"
       apply_no_weight="true"
       apply_with_weight="true"
       only_selected="false" /><inkscape:path-effect
       effect="bspline"
       id="path-effect1796"
       is_visible="true"
       lpeversion="1"
       weight="33.333333"
       steps="2"
       helper_size="0"
       apply_no_weight="true"
       apply_with_weight="true"
       only_selected="false" /><inkscape:path-effect
       effect="bspline"
       id="path-effect1792"
       is_visible="true"
       lpeversion="1"
       weight="33.333333"
       steps="2"
       helper_size="0"
       apply_no_weight="true"
       apply_with_weight="true"
       only_selected="false" /><inkscape:path-effect
       effect="bspline"
       id="path-effect1461"
       is_visible="true"
       lpeversion="1"
       weight="33.333333"
       steps="2"
       helper_size="0"
       apply_no_weight="true"
       apply_with_weight="true"
       only_selected="false" /><inkscape:path-effect
       effect="bspline"
       id="path-effect1019"
       is_visible="true"
       lpeversion="1"
       weight="33.333333"
       steps="2"
       helper_size="0"
       apply_no_weight="true"
       apply_with_weight="true"
       only_selected="false" /><inkscape:path-effect
       effect="bspline"
       id="path-effect2586"
       is_visible="true"
       lpeversion="1"
       weight="33.333333"
       steps="2"
       helper_size="0"
       apply_no_weight="true"
       apply_with_weight="true"
       only_selected="false" /><inkscape:path-effect
       effect="bspline"
       id="path-effect2582"
       is_visible="true"
       lpeversion="1"
       weight="33.333333"
       steps="2"
       helper_size="0"
       apply_no_weight="true"
       apply_with_weight="true"
       only_selected="false" /><inkscape:path-effect
       effect="bspline"
       id="path-effect2248"
       is_visible="true"
       lpeversion="1"
       weight="33.333333"
       steps="2"
       helper_size="0"
       apply_no_weight="true"
       apply_with_weight="true"
       only_selected="false" /><inkscape:path-effect
       effect="bspline"
       id="path-effect1914"
       is_visible="true"
       lpeversion="1"
       weight="33.333333"
       steps="2"
       helper_size="0"
       apply_no_weight="true"
       apply_with_weight="true"
       only_selected="false" /><inkscape:path-effect
       effect="bspline"
       id="path-effect1910"
       is_visible="true"
       lpeversion="1"
       weight="33.333333"
       steps="2"
       helper_size="0"
       apply_no_weight="true"
       apply_with_weight="true"
       only_selected="false" /><inkscape:path-effect
       effect="bspline"
       id="path-effect1369"
       is_visible="true"
       lpeversion="1"
       weight="33.333333"
       steps="2"
       helper_size="0"
       apply_no_weight="true"
       apply_with_weight="true"
       only_selected="false" /><inkscape:path-effect
       effect="bspline"
       id="path-effect1365"
       is_visible="true"
       lpeversion="1"
       weight="33.333333"
       steps="2"
       helper_size="0"
       apply_no_weight="true"
       apply_with_weight="true"
       only_selected="false" /><inkscape:path-effect
       effect="bspline"
       id="path-effect1361"
       is_visible="true"
       lpeversion="1"
       weight="33.333333"
       steps="2"
       helper_size="0"
       apply_no_weight="true"
       apply_with_weight="true"
       only_selected="false" /><inkscape:path-effect
       effect="bspline"
       id="path-effect1357"
       is_visible="true"
       lpeversion="1"
       weight="33.333333"
       steps="2"
       helper_size="0"
       apply_no_weight="true"
       apply_with_weight="true"
       only_selected="false" /><inkscape:path-effect
       effect="bspline"
       id="path-effect1353"
       is_visible="true"
       lpeversion="1"
       weight="33.333333"
       steps="2"
       helper_size="0"
       apply_no_weight="true"
       apply_with_weight="true"
       only_selected="false" /><inkscape:path-effect
       effect="bspline"
       id="path-effect1349"
       is_visible="true"
       lpeversion="1"
       weight="33.333333"
       steps="2"
       helper_size="0"
       apply_no_weight="true"
       apply_with_weight="true"
       only_selected="false" /><inkscape:path-effect
       effect="bspline"
       id="path-effect1345"
       is_visible="true"
       lpeversion="1"
       weight="33.333333"
       steps="2"
       helper_size="0"
       apply_no_weight="true"
       apply_with_weight="true"
       only_selected="false" /><inkscape:path-effect
       effect="bspline"
       id="path-effect1341"
       is_visible="true"
       lpeversion="1"
       weight="33.333333"
       steps="2"
       helper_size="0"
       apply_no_weight="true"
       apply_with_weight="true"
       only_selected="false" /><inkscape:path-effect
       effect="bspline"
       id="path-effect1791"
       is_visible="true"
       lpeversion="1"
       weight="33.333333"
       steps="2"
       helper_size="0"
       apply_no_weight="true"
       apply_with_weight="true"
       only_selected="false" /><inkscape:path-effect
       effect="bspline"
       id="path-effect1664"
       is_visible="true"
       lpeversion="1"
       weight="33.333333"
       steps="2"
       helper_size="0"
       apply_no_weight="true"
       apply_with_weight="true"
       only_selected="false" /><inkscape:path-effect
       effect="bspline"
       id="path-effect1660"
       is_visible="true"
       lpeversion="1"
       weight="33.333333"
       steps="2"
       helper_size="0"
       apply_no_weight="true"
       apply_with_weight="true"
       only_selected="false" /><inkscape:path-effect
       effect="bspline"
       id="path-effect1656"
       is_visible="true"
       lpeversion="1"
       weight="33.333333"
       steps="2"
       helper_size="0"
       apply_no_weight="true"
       apply_with_weight="true"
       only_selected="false" /><inkscape:path-effect
       effect="bspline"
       id="path-effect1652"
       is_visible="true"
       lpeversion="1"
       weight="33.333333"
       steps="2"
       helper_size="0"
       apply_no_weight="true"
       apply_with_weight="true"
       only_selected="false" /><inkscape:path-effect
       effect="bspline"
       id="path-effect973"
       is_visible="true"
       lpeversion="1"
       weight="33.333333"
       steps="2"
       helper_size="0"
       apply_no_weight="true"
       apply_with_weight="true"
       only_selected="false" /><inkscape:path-effect
       effect="bspline"
       id="path-effect969"
       is_visible="true"
       lpeversion="1"
       weight="33.333333"
       steps="2"
       helper_size="0"
       apply_no_weight="true"
       apply_with_weight="true"
       only_selected="false" /><inkscape:path-effect
       effect="bspline"
       id="path-effect965"
       is_visible="true"
       lpeversion="1"
       weight="33.333333"
       steps="2"
       helper_size="0"
       apply_no_weight="true"
       apply_with_weight="true"
       only_selected="false" /><inkscape:path-effect
       effect="bspline"
       id="path-effect961"
       is_visible="true"
       lpeversion="1"
       weight="33.333333"
       steps="2"
       helper_size="0"
       apply_no_weight="true"
       apply_with_weight="true"
       only_selected="false" /><inkscape:path-effect
       effect="bspline"
       id="path-effect957"
       is_visible="true"
       lpeversion="1"
       weight="33.333333"
       steps="2"
       helper_size="0"
       apply_no_weight="true"
       apply_with_weight="true"
       only_selected="false" /><inkscape:path-effect
       effect="bspline"
       id="path-effect953"
       is_visible="true"
       lpeversion="1"
       weight="33.333333"
       steps="2"
       helper_size="0"
       apply_no_weight="true"
       apply_with_weight="true"
       only_selected="false" /><inkscape:path-effect
       effect="bspline"
       id="path-effect688"
       is_visible="true"
       lpeversion="1"
       weight="33.333333"
       steps="2"
       helper_size="0"
       apply_no_weight="true"
       apply_with_weight="true"
       only_selected="false" /><inkscape:path-effect
       effect="bspline"
       id="path-effect684"
       is_visible="true"
       lpeversion="1"
       weight="33.333333"
       steps="2"
       helper_size="0"
       apply_no_weight="true"
       apply_with_weight="true"
       only_selected="false" /><inkscape:path-effect
       effect="bspline"
       id="path-effect680"
       is_visible="true"
       lpeversion="1"
       weight="33.333333"
       steps="2"
       helper_size="0"
       apply_no_weight="true"
       apply_with_weight="true"
       only_selected="false" /><inkscape:path-effect
       effect="bspline"
       id="path-effect580"
       is_visible="true"
       lpeversion="1"
       weight="33.333333"
       steps="2"
       helper_size="0"
       apply_no_weight="true"
       apply_with_weight="true"
       only_selected="false" /></defs><g
     inkscape:label="Layer 1"
     inkscape:groupmode="layer"
     id="layer1"
     transform="translate(-3.0757603,-54.092893)"><path
       style="fill:#6db33f;fill-opacity:1;stroke-width:0.265564"
       d="m 102.39445,65.285646 c -3.8147,-1.084927 -7.034375,-1.85485 -10.989164,-2.239862 -3.95479,-0.385015 -8.644223,-0.385015 -12.494008,-0.245008 -3.84979,0.139981 -6.859493,0.419954 -10.359277,1.084899 -3.49979,0.664941 -7.489386,1.71484 -11.059176,3.044749 -3.569787,1.329906 -6.719472,2.939745 -9.72928,4.654634 -3.009807,1.714888 -5.87952,3.534703 -8.43437,5.494586 -2.554851,1.959883 -4.794628,4.059677 -6.474517,5.774565 -1.679888,1.714892 -2.799777,3.044765 -4.269693,5.004649 -1.46991,1.959883 -3.289692,4.549575 -5.109543,7.139359 0,0 -11.077475,15.922633 -11.077475,15.922633 1.102697,-2.99773 2.20534,-5.99531 3.666635,-9.06911 1.4613,-3.073793 3.281122,-6.223483 5.170992,-9.303281 1.889873,-3.079794 3.849675,-6.089488 5.914552,-8.679339 2.064877,-2.589844 4.234619,-4.759589 6.229506,-6.754473 1.99488,-1.994876 3.814659,-3.814665 6.054576,-5.424592 2.23991,-1.60993 4.899651,-3.009788 8.340533,-4.726895 3.440886,-1.717105 7.662611,-3.75131 11.521302,-5.284547 3.858692,-1.533246 7.35383,-2.565343 10.77254,-3.123065 3.418731,-0.557719 6.760621,-0.64105 10.671476,-0.577707 3.910855,0.06337 8.390315,0.273289 12.485096,0.833315 4.094777,0.559999 7.804335,1.46989 11.560505,2.496845 3.75618,1.026953 7.55851,2.170818 11.04085,3.530314 3.48234,1.3595 6.64424,2.934391 9.80655,4.604521 3.1623,1.670128 6.32462,3.435275 9.1419,5.260642 2.81728,1.825367 5.28925,3.710738 8.03017,5.98337 2.74092,2.272641 5.75062,4.932369 8.42221,7.581004 2.67159,2.648639 5.00491,5.285935 7.0482,7.738825 2.04329,2.45289 3.79632,4.721073 5.42939,7.077133 1.63308,2.35606 3.14593,4.79944 4.65895,7.2432 0,0 2.09982,9.65923 2.09982,9.65923 -2.2398,-3.77971 -4.47941,-7.55902 -7.52418,-11.6538 -3.04479,-4.09476 -6.8944,-8.504323 -11.05911,-12.844033 -4.16469,-4.339721 -8.64425,-8.609295 -13.01892,-12.039082 -4.37468,-3.429789 -8.64425,-6.019533 -12.59898,-8.259385 -3.95471,-2.239856 -7.59435,-4.129667 -11.61907,-5.774582 -4.02473,-1.644914 -8.43429,-3.044775 -12.24899,-4.129699 z"
       id="path578"
       sodipodi:nodetypes="ccccccccccccccccccccccccccccccccccccc" /><path
       style="fill:#6db33f;fill-opacity:1;stroke-width:0.265289"
       d="m 18.985351,106.95215 c -0.07353,0.0354 -0.220769,0.10619 -0.648091,2.18151 -0.427356,2.07527 -1.134657,6.15446 -1.418472,9.66954 -0.283785,3.51508 -0.144134,6.46556 0.0033,9.8095 0.147574,3.34395 0.30307,7.08104 0.811559,10.84937 0.508499,3.76832 1.3699,7.56755 2.360428,11.34385 0.990533,3.77627 2.110053,7.52917 3.694961,11.30462 1.584908,3.7755 3.634941,7.5731 5.756252,10.965 2.121314,3.39189 4.313428,6.37743 6.505811,9.36337 2.37603,3.76551 4.752215,7.53123 6.650951,10.33797 1.898727,2.80668 3.319804,4.65417 4.741134,6.50198 -3.307863,-2.70337 -6.615411,-5.40648 -9.644329,-8.54103 -3.028914,-3.13456 -5.778543,-6.70002 -8.074449,-9.84639 -2.295916,-3.14638 -4.137795,-5.87321 -5.641782,-8.42564 -1.503993,-2.55242 -2.669853,-4.93012 -3.835406,-7.67986 -1.165546,-2.74981 -2.330597,-5.87139 -3.332723,-9.04054 -1.00213,-3.16916 -1.841156,-6.38541 -2.423542,-9.24134 -0.582381,-2.85589 -0.908,-5.35102 -1.187705,-8.32279 -0.279671,-2.97176 -0.513445,-6.41986 -0.595378,-8.59845 -0.08193,-2.17861 -0.01215,-3.08782 0.05792,-3.9968 0.349612,-1.67814 0.699182,-3.35608 1.153679,-5.10418 0.454493,-1.74808 1.013863,-3.56603 1.503323,-4.9645 0.489452,-1.39849 0.908982,-2.37737 1.188677,-3.11154 0.279707,-0.73416 0.419534,-1.22361 0.804108,-2.09768 0.384581,-0.87408 1.013866,-2.13266 1.328541,-2.76201 0.314669,-0.62936 0.314669,-0.62936 0.241101,-0.59396 z"
       id="path678"
       sodipodi:nodetypes="cccccccccccccccccccccccccc" /><path
       style="fill:#6db33f;fill-opacity:1;stroke-width:0.265289"
       d="m 175.09058,128.48807 c 0.24482,-0.10483 0.6643,1.43344 1.08385,3.84578 0.4195,2.41235 0.83897,5.69834 1.25852,8.98467 -0.27974,-2.09766 -0.55935,-4.19503 -1.01377,-5.73333 -0.45441,-1.53829 -1.08391,-2.51749 -1.7132,-3.4964 0.07,-1.74806 0.13988,-3.49587 0.3846,-3.60072 z"
       id="path682" /><path
       style="fill:#6db33f;fill-opacity:1;stroke-width:0.265289"
       d="m 174.46721,148.6781 c 0.3998,0.15556 0.67947,4.10145 0.42331,8.68831 -0.25625,4.58686 -1.04813,9.81417 -2.11257,13.87702 -1.06447,4.06285 -2.40126,6.96086 -4.15311,9.88966 -1.75186,2.92882 -3.91855,5.8882 -6.5171,8.89472 -2.59854,3.00648 -5.62865,6.05979 -8.84552,8.71746 -3.21687,2.65767 -6.62014,4.91946 -10.7692,7.15725 -4.14904,2.23776 -9.04342,4.45122 -14.28724,5.98952 -5.24382,1.5384 -10.83659,2.40139 -15.13646,2.79798 -4.29987,0.39658 -7.30647,0.32635 -11.26934,0.39619 -3.962863,0.0693 -8.881602,0.2786 -13.461589,-0.14092 -4.579972,-0.41955 -8.82075,-1.46748 -12.743108,-2.50029 -3.922358,-1.03283 -7.526358,-2.05048 -11.130116,-3.06796 0,0 -15.47427,-12.95434 -15.47427,-12.95434 2.633471,1.49156 5.267208,2.98321 8.8441,4.6372 3.576888,1.65396 8.096957,3.47028 11.89537,4.83294 3.798397,1.36269 6.874909,2.27167 10.685724,3.07576 3.810797,0.80412 8.355658,1.50332 12.935598,1.81791 4.579947,0.31489 9.194731,0.24491 13.879541,-0.035 4.68483,-0.27958 9.43947,-0.76914 13.94946,-1.74814 4.50999,-0.97889 8.77516,-2.44725 12.65586,-4.12544 3.88068,-1.67809 7.37673,-3.56598 10.73302,-5.69864 3.35628,-2.13264 6.57263,-4.50995 9.71914,-7.44669 3.1465,-2.93676 6.22302,-6.43281 8.77519,-10.27851 2.55216,-3.84574 4.57986,-8.04099 6.15315,-12.37621 1.57325,-4.33516 2.692,-8.8101 3.51131,-12.86515 0.81928,-4.05505 1.33908,-7.69004 1.73885,-7.53452 z"
       id="path686"
       sodipodi:nodetypes="ccccccccccccccccccccccccccc" /><path
       style="fill:#67a687;fill-opacity:1;stroke-width:0.265289"
       d="m 51.801578,77.140211 c -1.69825,0.574147 -4.636139,1.787993 -7.958149,3.490551 -3.322007,1.702556 -7.027739,3.893636 -10.150548,5.991159 -3.122813,2.097515 -5.662282,4.101204 -8.03911,6.419296 -2.376826,2.31808 -4.590721,4.95029 -6.711592,7.664903 -2.120869,2.71462 -4.148574,5.51146 -5.922738,9.03597 -1.774164,3.52451 -3.2946352,7.77629 -4.2691114,11.96731 -0.9744801,4.19103 -1.4028774,8.32071 -1.6215135,12.83747 -0.2186442,4.51676 -0.2274784,9.4201 -0.1152731,13.63048 0.1122409,4.2104 0.3455719,7.72755 1.0448545,11.24653 0.6992859,3.51896 1.8643399,7.03929 3.1112055,10.07042 1.246872,3.03108 2.575369,5.57262 4.218575,8.34679 1.643215,2.77414 3.601,5.78072 5.559259,8.57784 1.958264,2.79714 3.916819,5.38456 6.154394,8.00667 2.237575,2.62214 4.753922,5.27875 7.585421,7.72581 2.831506,2.44707 5.977938,4.68453 9.496667,7.04895 3.518726,2.36439 7.40943,4.85544 11.045871,6.5336 3.636448,1.67809 7.018167,2.54309 10.596668,3.36027 3.578512,0.81708 7.353434,1.58621 10.358888,2.00589 3.00546,0.41972 5.241029,0.49005 7.476929,0.56038 -2.445658,-0.83943 -4.891018,-1.67883 -7.547283,-2.76282 -2.656265,-1.08398 -5.523337,-2.41266 -8.39015,-3.74114 -2.573811,-0.88682 -5.147254,-1.77349 -7.559619,-2.64756 -2.412352,-0.874 -4.663155,-1.73526 -7.60659,-3.28462 -2.943435,-1.54942 -6.579319,-3.78691 -10.110854,-6.51384 -3.531535,-2.727 -6.958399,-5.94329 -9.965129,-9.01991 -3.006736,-3.07665 -5.593007,-6.01329 -8.00498,-9.47451 -2.411974,-3.46117 -4.649438,-7.44663 -6.327623,-11.15255 -1.678186,-3.70595 -2.796918,-7.13206 -3.740895,-10.59326 -0.943977,-3.46119 -1.713108,-6.95723 -2.097712,-10.24363 -0.384608,-3.28638 -0.384608,-6.36291 -0.361637,-10.32637 0.02294,-3.96345 0.06892,-8.8135 0.523391,-13.04392 0.454479,-4.23042 1.317516,-7.84071 2.308425,-11.0444 0.990909,-3.20368 2.109644,-6.00052 3.403225,-8.51779 1.293585,-2.51726 2.761925,-4.75472 4.684833,-7.06221 1.922907,-2.307503 4.30022,-4.684813 7.09717,-7.097173 2.796939,-2.41236 6.013261,-4.85956 9.229688,-7.306838 1.678132,-1.678135 3.356271,-3.356268 5.89297,-5.211475 2.536699,-1.855207 5.931745,-3.887351 7.400227,-4.936145 1.468477,-1.048787 1.010099,-1.114271 -0.688147,-0.540128 z"
       id="path951"
       sodipodi:nodetypes="cccccccccccccccccccccccccccccccccccccccc" /><path
       style="fill:#67a687;fill-opacity:1;stroke-width:0.265289"
       d="m 59.695008,78.527127 c -1.240822,0.760268 1.454907,-0.135349 4.150798,-1.031022 0,0 7.445071,-4.561603 7.445071,-4.561603 -5.177589,2.416207 -10.355045,4.832359 -11.595869,5.592625 z"
       id="path955"
       sodipodi:nodetypes="cccc" /><path
       style="fill:#67a687;fill-opacity:1;stroke-width:0.265289"
       d="m 79.128544,73.897111 c -0.864012,0.587694 3.335645,0.0023 8.663732,-0.111086 5.328089,-0.113416 11.783978,0.245073 16.780224,0.771722 4.99623,0.526671 8.53215,1.221429 12.41407,1.918795 3.88191,0.697364 8.10937,1.397273 11.78416,2.415651 3.67479,1.01838 6.7962,2.354904 9.91799,3.691597 0,0 -15.79519,-9.439514 -15.79519,-9.439514 -3.70588,-0.629297 -7.41144,-1.258548 -11.32715,-1.817938 -3.91568,-0.559394 -8.04103,-1.048843 -11.36238,-1.293585 -3.32134,-0.244781 -5.838764,-0.244781 -8.355967,-0.244781 -5.927829,1.760739 -11.855463,3.521424 -12.719489,4.109112 z"
       id="path959"
       sodipodi:nodetypes="ccccccccccc" /><path
       style="fill:#67a687;fill-opacity:1;stroke-width:0.265289"
       d="m 158.10303,173.60012 c -0.30684,-0.16712 -3.28425,4.43777 -6.40396,8.46507 -3.11973,4.02729 -6.38156,7.47689 -9.56309,10.55355 -3.18151,3.07662 -6.28242,5.77993 -10.05743,8.55708 -3.77502,2.77707 -8.22402,5.62782 -12.67305,8.47859 0,0 12.35069,-3.52068 12.35069,-3.52068 3.36076,-2.51587 6.7215,-5.03171 9.72313,-7.59494 3.00164,-2.56327 5.64402,-5.17373 8.28647,-7.78427 1.30553,-2.36999 2.61097,-4.73984 4.44566,-8.39427 1.83468,-3.65446 4.19841,-8.59314 3.89158,-8.76013 z"
       id="path967"
       sodipodi:nodetypes="cccccccccc" /><path
       style="fill:#67a687;fill-opacity:1;stroke-width:0.265289"
       d="m 118.37424,214.0523 c 1.36121,0.31522 -1.57627,1.55127 -4.65479,2.67682 -3.07853,1.12552 -6.29782,2.14066 -8.943,2.92704 -2.64519,0.7864 -4.7162,1.34399 -6.787047,1.90161 -2.18698,-0.59542 -4.373629,-1.19083 -6.795664,-1.76828 -2.422032,-0.57745 -5.079346,-1.13685 -7.736389,-1.69622 3.49612,-0.0697 6.992483,-0.13996 9.661719,-0.38438 2.669226,-0.24459 4.511523,-0.66369 6.469385,-1.15315 1.957866,-0.48946 4.030906,-1.0492 6.104196,-1.609 5.66007,-0.60491 11.32038,-1.20987 12.68159,-0.89444 z"
       id="path971"
       sodipodi:nodetypes="cccccccccc" /><path
       style="fill:#006f3a;fill-opacity:1;stroke-width:0.265289"
       d="m 29.337478,189.98446 c 0,0 0,0 0,0 0,0 0,0 0,0 z"
       id="path1650" /><path
       style="fill:#006f3a;fill-opacity:1;stroke-width:0.265289"
       d="m 16.343721,154.89559 c 0.01179,1.41057 0.03537,4.23137 0.210587,6.7147 0.175289,2.48331 0.502067,4.62885 0.875272,6.6337 0.373208,2.00476 0.792665,3.86837 1.212195,5.73232 1.048027,2.3294 2.096203,4.65909 3.994956,7.5481 1.898749,2.88897 4.647798,6.33718 7.397138,9.78574 -0.529246,-1.43075 -1.058369,-2.86105 -1.633553,-4.59782 -0.575186,-1.73671 -1.196232,-3.77932 -2.042223,-6.05885 -0.845997,-2.27952 -1.916869,-4.79574 -2.751368,-6.9859 -0.834507,-2.19015 -1.432609,-4.05443 -2.030634,-5.91845 -0.90899,-2.30742 -1.817849,-4.61453 -2.691897,-6.9919 -0.874043,-2.3774 -1.713098,-4.82464 -2.132682,-6.04839 -0.419595,-1.22382 -0.419591,-1.22382 -0.407802,0.18651 z"
       id="path1654"
       sodipodi:nodetypes="ccccccccccccc" /><path
       style="fill:#006f3a;fill-opacity:1;stroke-width:0.265289"
       d="m 27.56175,195.1323 c -0.220581,0.31473 1.689241,3.4577 4.20512,6.88152 2.515863,3.42385 5.637451,7.12839 9.634108,10.84545 3.996664,3.71717 8.867868,7.44645 13.995478,10.60456 5.127612,3.15812 10.511023,5.74475 15.171923,7.53936 4.660896,1.79459 8.598768,2.7971 12.339666,3.48512 3.740894,0.68801 7.284505,1.06156 10.804421,1.17842 3.519914,0.11695 7.015954,-0.0227 10.302324,-0.16262 3.28639,-0.13996 6.36291,-0.27958 9.40451,-0.87407 3.0416,-0.59439 6.0482,-1.64314 9.22969,-2.93676 3.18148,-1.29356 6.53768,-2.83186 10.10373,-4.82464 3.56605,-1.99281 7.34177,-4.44007 11.18752,-7.3768 3.84574,-2.93682 7.76131,-6.3629 11.22248,-9.82408 3.46117,-3.46117 6.46777,-6.95724 9.12261,-10.60213 2.65482,-3.64481 4.95775,-7.43823 6.84788,-10.95879 1.89017,-3.52059 3.36736,-6.76799 4.56985,-10.25624 1.20255,-3.48826 2.13023,-7.21713 2.68074,-11.51019 0.55054,-4.29306 0.72381,-9.14989 0.53521,-13.25937 -0.18864,-4.10947 -0.73904,-7.47116 -1.49726,-10.71723 -0.75825,-3.24609 -1.72426,-6.37656 -2.69022,-9.50678 0,0 -1.07438,12.2375 -1.07438,12.2375 0.34072,4.29633 0.68148,8.59286 0.57718,12.7992 -0.10425,4.20643 -0.65358,8.32251 -1.44108,12.17576 -0.78749,3.85322 -1.81314,7.44313 -3.31709,11.10306 -1.50398,3.65999 -3.48614,7.38977 -6.22532,11.5971 -2.7392,4.20737 -6.23524,8.89206 -9.94115,12.98252 -3.70588,4.09053 -7.62147,7.58656 -11.99161,10.62815 -4.37016,3.04165 -9.1947,5.62873 -13.9844,7.79632 -4.7897,2.16758 -9.54433,3.91564 -14.15919,5.10433 -4.61489,1.1887 -9.08983,1.81802 -13.914501,1.99282 -4.824655,0.17494 -9.998807,-0.10496 -14.706998,-0.88514 -4.708197,-0.78031 -8.950104,-2.06123 -12.656066,-3.35479 -3.70597,-1.29359 -6.875571,-2.59971 -9.963769,-4.19671 -3.088208,-1.59721 -6.094815,-3.48506 -8.786857,-5.40793 -2.692039,-1.92287 -5.069349,-3.88063 -6.957275,-5.55879 -1.88793,-1.67819 -3.286616,-3.07683 -4.685061,-4.47531 -3.006661,-2.51721 -6.013028,-5.03414 -8.691876,-7.54934 -2.678851,-2.51519 -5.029755,-5.02832 -5.250337,-4.71345 z"
       id="path1658"
       sodipodi:nodetypes="cccccccccccccccccccccccccccccccccccccc" /><path
       style="fill:#006f3b;fill-opacity:1;stroke-width:0.266444"
       d="m 170.63472,122.25232 c -0.24611,-1.89352 -0.59762,-1.96364 -0.87906,-2.48948 -0.28146,-0.52583 -0.49241,-1.50757 -1.7934,-3.75164 -1.30099,-2.24408 -3.69206,-5.75032 -6.32933,-9.22161 -2.63728,-3.47129 -5.52063,-6.907413 -9.02828,-10.320703 -3.50762,-3.41329 -7.63929,-6.803426 -12.04596,-9.636959 -4.40668,-2.833534 -9.08785,-5.110031 -13.88784,-6.921274 -4.79998,-1.81124 -9.71821,-3.156941 -14.50501,-4.103689 -4.78679,-0.94675 -9.44157,-1.494379 -14.460559,-1.447525 -5.018974,0.04688 -10.401446,0.688254 -15.062696,1.663348 -4.661255,0.975097 -8.600614,2.283797 -11.105261,3.078446 -2.504651,0.794641 -3.574534,1.075193 -4.644245,1.355694 0,0 -8.947383,9.62399 -8.947383,9.62399 4.966418,-2.36648 9.932963,-4.733018 15.405164,-6.652594 5.472197,-1.91958 11.449866,-3.392199 17.849737,-3.883043 6.399859,-0.490848 13.221463,2.8e-5 19.832263,1.122098 6.6108,1.122073 13.01043,2.875191 18.28499,5.049186 5.27456,2.173992 9.42376,4.768608 13.08078,7.293192 3.65703,2.52459 6.82169,4.97896 9.81077,8.226623 2.98909,3.24767 5.80245,7.28827 8.27639,11.04071 2.47395,3.75243 4.6082,7.21626 6.33104,10.38528 1.72281,3.16904 3.03392,6.04261 4.3452,8.91657 -0.14057,-3.71669 -0.28146,-7.4331 -0.52731,-9.32662 z"
       id="path1662"
       sodipodi:nodetypes="ccccccccccccccccccccccc" /><path
       style="fill:#006f3b;fill-opacity:1;stroke-width:0.265289"
       d="m 59.235953,83.439548 c -0.585512,0.0532 -4.482867,2.564489 -8.188307,5.363926 -3.705447,2.799433 -7.218562,5.886713 -10.279431,8.947593 -3.060879,3.060873 -5.669101,6.094923 -8.037949,9.315503 -2.368849,3.22057 -4.498008,6.62724 -6.592453,10.26141 -2.094435,3.63417 -4.15389,7.49538 -5.56454,11.27493 -1.410649,3.77954 -2.172308,7.47672 -2.934022,11.17417 0.425852,2.39541 0.851752,4.7911 1.381906,7.07916 0.530155,2.28804 1.164458,4.4683 1.798861,6.64893 0.110822,-3.45816 0.221647,-6.91609 0.702911,-10.4285 0.48125,-3.5124 1.332932,-7.0788 2.344334,-10.35258 1.011399,-3.27378 2.182461,-6.25467 3.619722,-9.34212 1.437262,-3.08746 3.140624,-6.28127 4.87066,-9.12919 1.730041,-2.84791 3.486635,-5.34973 5.935321,-8.0912 2.448691,-2.74146 5.589263,-5.72235 7.691887,-7.984663 2.102618,-2.26231 3.167257,-3.80604 4.231883,-5.34974 1.384013,-1.543702 2.768006,-3.087397 4.823226,-5.061715 2.05522,-1.974322 4.781512,-4.379127 4.195991,-4.325914 z"
       id="path1789"
       sodipodi:nodetypes="cccccccccccccccccc" /><path
       style="fill:#d5df4c;fill-opacity:1;stroke-width:0.265289"
       d="m 91.833214,65.686142 c -0.753041,-0.06547 -4.344559,0.08867 -7.351807,0.394915 -3.007245,0.306236 -5.430071,0.764624 -8.045903,1.398297 -2.615841,0.633674 -5.424453,1.442607 -8.796918,2.719543 -3.372464,1.27694 -7.308373,3.021768 -10.487846,4.516302 -3.179466,1.494527 -5.602278,2.738679 -8.418111,4.768695 -2.815832,2.030007 -6.024428,4.845713 -8.950561,7.679156 -2.926133,2.833442 -5.569553,5.684367 -7.867571,8.669977 -2.298015,2.98562 -4.250312,6.105493 -5.744343,8.543513 -1.494026,2.43802 -2.529624,4.19391 -3.636792,6.11963 -1.107164,1.92571 -2.285832,4.02112 -3.164323,5.63705 -0.878495,1.61594 -1.456749,2.75227 -1.863177,4.45692 -0.406425,1.70464 -0.640985,3.97708 -0.875571,6.24979 0,0 1.063462,13.6722 1.063462,13.6722 0.589342,-2.98979 1.178647,-5.9794 1.866221,-9.01318 0.687576,-3.03379 1.473352,-6.11142 2.390119,-9.02546 0.916768,-2.91402 1.964467,-5.66425 3.339627,-8.48007 1.375162,-2.81582 3.077682,-5.697 4.747512,-8.38184 1.669832,-2.68482 3.306868,-5.17312 5.238652,-7.628783 1.931776,-2.45565 4.158149,-4.87847 7.006707,-7.399602 2.848565,-2.521136 6.319083,-5.140395 9.462302,-7.301351 3.143228,-2.160963 5.958921,-3.863477 8.578278,-5.304117 2.619353,-1.44064 5.042172,-2.619301 6.810251,-3.372355 1.768082,-0.753052 2.88109,-1.080416 3.994299,-1.407831 2.881242,-1.37513 5.762597,-2.750328 8.146312,-3.689493 2.383715,-0.939156 4.2697,-1.442325 5.710337,-1.900715 1.440631,-0.458394 2.435774,-0.871956 3.976129,-1.221291 1.540373,-0.349331 3.625751,-0.634428 2.872715,-0.6999 z"
       id="path1339"
       sodipodi:nodetypes="cccccccccccccccccccccccccccc" /><path
       style="fill:#d5df4c;fill-opacity:1;stroke-width:0.265289"
       d="m 140.4514,78.343198 c -0.23898,-0.17769 0.87389,0.468012 1.98709,1.113908 0,0 1.43408,1.066177 1.43408,1.066177 -1.59123,-1.001292 -3.18215,-2.002383 -3.42117,-2.180085 z"
       id="path1347"
       sodipodi:nodetypes="cccc" /><path
       style="fill:#d5df4c;fill-opacity:1;stroke-width:0.270664"
       d="m 162.48352,116.3682 c 0.2695,-0.38325 1.4338,1.39959 2.59831,3.18275 0.9266,2.93802 1.85325,5.8763 2.42017,9.09964 0.56689,3.22335 0.77416,6.73177 0.81309,10.18313 0.039,3.45136 -0.0905,6.84526 -0.51249,10.53516 -0.42205,3.68989 -1.13672,7.67537 -2.07528,11.73156 -0.93858,4.05622 -2.10095,8.18272 -3.45178,12.13442 -1.35085,3.95171 -2.89003,7.72837 -4.18395,10.70827 -1.29392,2.97996 -2.34241,5.16279 -3.64229,6.99168 -1.29987,1.82889 -2.85107,3.3038 -4.4023,4.77875 0,0 -8.04005,5.24728 -8.04005,5.24728 1.41269,-1.6271 2.82535,-3.25421 4.09902,-4.9705 1.27367,-1.71636 2.40831,-3.52188 3.80997,-5.92933 1.40166,-2.40742 3.07026,-5.41668 4.53865,-8.52627 1.46839,-3.1096 2.73653,-6.31947 3.90458,-9.52939 1.16805,-3.20992 2.23595,-6.41979 3.07027,-9.83029 0.83433,-3.41055 1.43503,-7.02161 1.90225,-11.23466 0.46724,-4.21304 0.80096,-9.0278 0.80097,-13.97643 2e-5,-4.94864 -0.33368,-10.0309 -0.81335,-13.84691 -0.47967,-3.81601 -1.10529,-6.3656 -0.83579,-6.74886 z"
       id="path1351"
       sodipodi:nodetypes="cccccccccccccccccccc" /><path
       style="fill:#d5df4c;fill-opacity:1;stroke-width:0.265289"
       d="m 138.46811,208.29367 c 0.89148,0.0871 -0.12288,1.44869 -1.7433,2.91551 -1.62039,1.46676 -3.84675,3.03828 -5.79763,4.33083 -1.9509,1.29255 -3.62618,2.30601 -5.56145,3.38851 -1.93529,1.08253 -4.13051,2.23403 -6.32568,3.3855 -2.5468,-0.0693 -5.09333,-0.13865 -8.13138,0.01 -3.03804,0.15064 -6.56707,0.52138 -6.45579,0.21511 0.11128,-0.30614 3.86291,-1.2895 6.68889,-2.07785 2.82597,-0.78838 4.72594,-1.3817 6.57914,-2.0577 1.8532,-0.676 3.65946,-1.43461 5.25016,-2.27223 1.59071,-0.83768 2.96582,-1.75444 4.43164,-2.69242 1.46585,-0.93785 3.02223,-1.89695 4.57872,-2.85596 2.79753,-1.1887 5.59519,-2.37752 6.48668,-2.29076 z"
       id="path1355"
       sodipodi:nodetypes="ccccccccccccc" /><path
       style="fill:#d5df4c;fill-opacity:1;stroke-width:0.265289"
       d="m 59.02127,217.05182 c 1.105658,0.20797 4.052384,1.0593 6.802681,1.74686 2.750293,0.68753 5.304075,1.2114 7.563253,1.66976 2.259173,0.4584 4.223615,0.85129 5.795182,1.01496 1.571571,0.16392 2.749995,0.0981 3.928685,0.0336 1.833524,0.65481 3.667356,1.30975 5.762822,1.89909 2.095468,0.58934 4.452799,1.11318 6.482784,1.50608 2.029974,0.39282 3.732201,0.65474 5.434743,0.91672 -3.208652,0 -6.417039,0 -9.134586,-0.0982 -2.717548,-0.0982 -4.943924,-0.2948 -7.203097,-0.55662 -2.259178,-0.26208 -4.551029,-0.58934 -6.875676,-1.14593 -2.324658,-0.55652 -4.681996,-1.34231 -6.842948,-2.06266 -2.160953,-0.72031 -4.125388,-1.37515 -5.984116,-2.07431 -1.858725,-0.69913 -3.611587,-1.44255 -4.855798,-2.03192 -1.244196,-0.58934 -1.979599,-1.02454 -0.873929,-0.81656 z"
       id="path1359"
       sodipodi:nodetypes="ccccccccccccccc" /><path
       style="fill:#d5df4c;fill-opacity:1;stroke-width:0.265289"
       d="m 37.651596,197.03031 c -0.0357,-0.30565 1.187217,0.94839 4.620596,3.60201 3.433376,2.65355 9.076775,6.7063 12.140414,8.82293 3.063642,2.11656 3.546813,2.29675 4.03032,2.47706 -1.9926,-0.79988 -3.984847,-1.59956 -5.701497,-2.4251 -1.716644,-0.82557 -3.15724,-1.67686 -5.188805,-3.08778 -2.031568,-1.41096 -4.653896,-3.38149 -6.612412,-5.29956 -1.958512,-1.91818 -3.252907,-3.78381 -3.288616,-4.08956 z"
       id="path1363"
       sodipodi:nodetypes="cccccccc" /><path
       style="fill:#b0d195;fill-opacity:1;stroke-width:0.265289"
       d="m 104.22857,65.732556 c 1.2762,0.392942 3.82827,1.178722 6.02199,1.964552 2.19372,0.785828 4.0286,1.571469 5.86385,2.357263 -3.27413,-0.458382 -6.54792,-0.916711 -9.00359,-1.145922 -2.45566,-0.229231 -4.09267,-0.229231 -5.82803,-0.06554 -1.735362,0.163695 -3.568799,0.491094 -5.726262,0.824574 -2.157451,0.333483 -4.638663,0.672985 -6.963385,1.196848 -2.324722,0.523866 -4.492634,1.232048 -6.762905,2.123626 -2.270262,0.891582 -4.642647,1.96647 -6.836388,3.046962 -2.193728,1.080486 -4.208554,2.166463 -5.838125,3.298844 -1.629578,1.132378 -2.873727,2.311045 -4.281618,3.653458 -1.407906,1.342415 -2.979457,2.848481 -4.551079,4.611037 -1.571616,1.762536 -3.143141,3.781362 -5.042186,6.171529 -1.899031,2.39017 -4.125407,5.15146 -6.089918,8.267503 -1.96452,3.11604 -3.667037,6.58656 -5.173152,10.15542 -1.506118,3.56888 -2.815719,7.23577 -3.96169,10.57546 -1.14597,3.3397 -2.128178,6.35178 -3.175918,10.21536 -1.047744,3.86358 -2.160907,8.57817 -2.913965,12.93288 -0.753058,4.35471 -1.145945,8.34906 -1.211394,11.55775 -0.06547,3.20872 0.196447,5.63155 1.047809,8.74199 0.851336,3.11051 2.291925,6.90843 3.79807,10.28084 1.506144,3.37238 3.077701,6.31906 4.682056,9.06937 1.604358,2.75028 3.241397,5.30405 5.271423,7.85793 2.030022,2.55382 4.452836,5.10759 7.39962,7.62868 2.946785,2.52108 6.4173,5.00939 9.784172,7.24342 3.36688,2.23391 6.629824,4.21343 9.911575,5.81368 3.281765,1.6003 6.581921,2.82126 10.510457,4.03068 3.928526,1.20943 8.484914,2.40723 12.209948,3.09881 3.725035,0.69158 6.618335,0.87697 9.734835,0.93691 3.11651,0.0596 6.45606,-0.007 9.69749,-0.16911 3.24143,-0.16392 6.38454,-0.42568 8.90561,-0.8186 2.52108,-0.3929 4.42003,-0.9167 6.89988,-1.71671 2.47984,-0.79991 5.54025,-1.8758 8.60089,-2.95178 -3.21609,2.08919 -6.43204,4.17828 -8.97735,5.53484 -2.54532,1.35657 -4.41995,1.98044 -6.29445,2.60429 -1.62497,0.39696 -3.24972,0.79382 -5.08323,1.02301 -1.83352,0.22936 -3.87557,0.29059 -6.73016,0.32169 -2.85458,0.0292 -6.52154,0.0292 -9.59925,-0.0674 -3.0777,-0.0982 -5.566001,-0.2948 -8.185336,-0.75303 -2.61932,-0.45834 -5.369545,-1.17862 -8.218071,-2.02991 -2.848533,-0.85129 -5.795204,-1.83349 -8.610992,-2.84845 -2.81579,-1.01505 -5.500518,-2.06272 -8.489595,-3.66303 -2.98908,-1.60024 -6.282223,-3.75302 -9.883845,-6.2988 -3.601636,-2.5458 -7.511315,-5.48437 -10.41581,-7.97676 -2.904495,-2.49238 -4.80346,-4.53849 -7.199698,-7.89026 -2.396229,-3.35173 -5.289461,-8.00887 -7.618209,-12.30215 -2.328756,-4.29326 -4.092678,-8.22205 -5.167168,-11.81962 -1.074489,-3.59764 -1.459307,-6.86363 -1.618997,-10.29751 -0.159679,-3.43387 -0.0942,-7.03535 0.233215,-10.83339 0.327412,-3.79805 0.91674,-7.79243 1.702533,-11.36129 0.785794,-3.56887 1.768018,-6.71198 2.815752,-9.88793 1.04773,-3.17596 2.160914,-6.38455 3.33962,-9.75695 1.178706,-3.3724 2.422858,-6.90841 3.869952,-10.33036 1.4471,-3.42197 3.097032,-6.72958 5.02969,-9.731553 1.932658,-3.00197 4.147786,-5.697861 6.412602,-8.143195 2.264816,-2.445334 4.579026,-4.639784 6.706391,-6.843826 2.127359,-2.204048 4.067675,-4.417488 5.895646,-6.086476 1.827982,-1.668997 3.54336,-2.79334 5.258834,-3.917748 2.540908,-1.102006 5.081935,-2.204062 7.402938,-3.232595 2.321,-1.02853 4.421992,-1.983529 6.586528,-2.692262 2.164529,-0.708728 4.392281,-1.171129 6.605333,-1.473866 2.213048,-0.302737 4.411139,-0.445808 6.289029,-0.524887 1.877886,-0.07911 3.435378,-0.09417 4.330038,-0.0669 0.89465,0.02688 1.12638,0.09677 1.24209,0.131461 0.11571,0.03473 0.11571,0.03473 1.39192,0.427651 z"
       id="path1908"
       sodipodi:nodetypes="ccccccccccccccccccccccccccccccccccccccccccccccccccccccccccccccccc" /><path
       style="display:inline;fill:#b0d195;fill-opacity:1;stroke-width:0.265289"
       d="m 119.55904,66.387895 c 0.52386,-0.03269 3.94201,0.834633 8.04612,2.231886 4.10409,1.397257 8.89366,3.324158 12.64889,5.049391 3.75521,1.725232 6.47561,3.24854 9.34258,5.143181 2.86696,1.894642 5.88014,4.160336 8.84511,6.701189 2.96497,2.540846 5.88137,5.356487 8.37932,8.162755 2.49794,2.80627 4.57722,5.60284 6.73006,8.834713 2.15289,3.23188 4.37921,6.89877 6.08175,10.59862 1.70254,3.69985 2.88117,7.43223 3.83068,11.42675 0.9495,3.99452 1.66976,8.25073 2.08784,12.4669 0.41807,4.21615 0.53394,8.39177 0.50119,12.64824 -0.0337,4.25645 -0.2142,8.59323 -0.86141,12.8245 -0.64731,4.23121 -1.76048,8.35648 -3.10289,12.18727 -1.34241,3.8308 -2.91399,7.36679 -4.8785,11.13205 -1.96448,3.76531 -4.32185,7.75967 -6.81021,11.33252 -2.48832,3.57287 -5.10754,6.72399 -7.85434,9.51714 -2.74679,2.79315 -5.6209,5.22799 -9.04525,7.57894 -3.42433,2.35091 -7.39876,4.6177 -11.37317,6.88444 3.45644,-2.8556 6.91283,-5.71117 9.91156,-8.42631 2.99871,-2.7151 5.53957,-5.28957 7.8381,-8.01142 2.29852,-2.72182 4.35457,-5.59086 6.21279,-8.28121 1.85824,-2.69038 3.51841,-5.20177 5.40434,-8.71121 1.88597,-3.50948 3.99749,-8.01661 5.64267,-12.26746 1.64515,-4.25083 2.8238,-8.24522 3.48622,-12.13542 0.66238,-3.89014 0.80845,-7.67588 0.77573,-12.0306 -0.0337,-4.35466 -0.24412,-9.27787 -0.481,-13.1147 -0.23675,-3.83682 -0.49866,-6.58698 -0.92833,-8.98117 -0.42963,-2.3942 -1.02704,-4.43216 -1.58364,-6.56039 -0.55663,-2.12823 -1.07241,-4.34654 -1.88687,-6.50345 -0.81447,-2.15691 -1.92766,-4.25232 -2.87717,-5.98763 -0.9495,-1.73532 -1.73526,-3.11042 -3.07768,-5.14042 -1.34237,-2.03 -3.24136,-4.71474 -5.22699,-7.110443 -1.98563,-2.39569 -4.05783,-4.50212 -5.98961,-6.401159 -1.93178,-1.899049 -3.72295,-3.590509 -5.58151,-4.976125 -1.85855,-1.38563 -3.78435,-2.465225 -5.33887,-3.477456 -1.55452,-1.012236 -2.7375,-1.957023 -3.81573,-2.608725 -1.07823,-0.651698 -2.0516,-1.010117 -3.18194,-1.602174 -1.13036,-0.592062 -2.4176,-1.4178 -3.71605,-2.223574 -1.29846,-0.805785 -2.60809,-1.591569 -4.08147,-2.410117 -1.47338,-0.818558 -3.11043,-1.669817 -4.78026,-2.652057 -1.66984,-0.98223 -3.37231,-2.095384 -5.40888,-3.118508 -2.03659,-1.023112 -4.40705,-1.955992 -3.88318,-1.988757 z"
       id="path1912"
       sodipodi:nodetypes="cccccccccccccccccccccccccccccccccccccccccc" /><path
       style="fill:#6db33f;fill-opacity:1;stroke-width:0.265289"
       d="m 174.88527,125.4322 c 0.29859,-0.25038 1.09258,3.2717 1.70751,7.29685 0.61491,4.02515 1.05086,8.55278 1.48681,13.0808 -0.55975,-1.95173 -1.11945,-3.90311 -1.63616,-5.91678 -0.51673,-2.01368 -0.9904,-4.08943 -1.46401,-6.16492 -0.19638,-4.02293 -0.39287,-8.04558 -0.0942,-8.29595 z"
       id="path2246"
       sodipodi:nodetypes="cccccc" /><path
       style="fill:#d2dd4b;fill-opacity:1;stroke-width:0.265289"
       d="m 14.341533,147.03548 c 0.127444,1.78572 0.266489,4.63885 0.401478,6.55656 0.135032,1.91771 0.265984,2.89992 0.462447,4.04592 0.196496,1.14594 0.458384,2.45556 0.753078,3.63427 0.294709,1.1787 0.622007,2.22609 0.949422,3.27383 -0.130952,-1.83352 -0.261901,-3.66675 -0.327412,-5.17289 -0.06551,-1.50614 -0.06551,-2.68482 -0.06551,-3.5688 0,-0.88406 0,-1.47363 0,-2.06297 -0.844245,-3.30955 -1.688413,-6.61879 -2.052623,-7.91442 -0.364202,-1.2956 -0.248349,-0.57723 -0.120938,1.2085 z"
       id="path2580"
       sodipodi:nodetypes="cccccccccc" /><path
       style="fill:#d2dd4b;fill-opacity:1;stroke-width:0.265289"
       d="m 24.209418,174.99086 c -1.080479,-2.32466 -0.556627,-0.88403 0.272026,0.99184 0.828665,1.87587 1.961998,4.18679 3.996081,7.4222 2.034082,3.23544 4.968563,7.39486 7.152206,10.36485 2.183642,2.96996 3.616132,4.75002 2.662588,3.83928 -0.953534,-0.91073 -4.293349,-4.51249 -7.632975,-8.11404 -2.684796,-6.08989 -5.369449,-12.17945 -6.449926,-14.50413 z"
       id="path2584"
       sodipodi:nodetypes="ccccccc" /><path
       style="fill:#67a687;fill-opacity:1;stroke-width:0.265289"
       d="m 69.636854,73.73902 c -0.267523,0.08144 -1.633167,0.507911 -3.139319,1.097267 -1.50616,0.589356 -3.152674,1.341536 -4.663555,2.143281 -1.510881,0.801748 -2.886069,1.653045 -4.261203,2.504326 1.375134,-0.392897 2.750459,-0.785845 4.027369,-1.178744 1.276916,-0.392901 2.455428,-0.785742 3.634122,-1.178639 1.00291,-0.980517 2.005816,-1.961021 2.922672,-2.583145 0.916863,-0.622121 1.74745,-0.885772 1.479914,-0.804346 z"
       id="path1017"
       sodipodi:nodetypes="cccccccc" /><path
       style="fill:#d5df4c;fill-opacity:1;stroke-width:0.27556"
       d="m 101.30835,68.83553 c 0.73428,0.08426 2.20252,0.252782 3.64674,0.42124 1.44421,0.168489 2.8643,0.336988 4.32055,0.553617 1.45624,0.216661 2.94854,0.481405 4.26035,0.746183 1.31184,0.264769 2.44308,0.529544 3.59844,0.806348 1.15536,0.27682 2.33477,0.56564 3.2374,0.818393 0.90261,0.252783 1.52809,0.469263 2.15391,0.685896 -1.25163,-0.649888 -2.50294,-1.2996 -3.4898,-1.756954 -0.98686,-0.457355 -1.70928,-0.72224 -2.43137,-0.987003 -1.2757,-0.264769 -2.55108,-0.529476 -3.87495,-0.746118 -1.32385,-0.216629 -2.6958,-0.385131 -3.91135,-0.529548 -1.21552,-0.144419 -2.27456,-0.264769 -3.36977,-0.336988 -1.0952,-0.07221 -2.22647,-0.09628 -3.04488,-0.04818 -0.81843,0.04811 -1.3239,0.168458 -1.57671,0.228648 -0.25282,0.06023 -0.25282,0.06023 0.48144,0.144452 z"
       id="path1459"
       sodipodi:nodetypes="sccccccccccccss" /><path
       style="fill:#67a687;fill-opacity:1;stroke-width:0.265289"
       d="m 161.4414,175.31474 c 0.38235,-0.39395 2.39836,-4.14789 3.97415,-7.31104 1.57578,-3.16317 2.71124,-5.73531 3.63815,-7.97152 0.92694,-2.23618 1.64525,-4.13625 2.213,-5.83949 0.56777,-1.70323 0.98485,-3.20938 1.33247,-4.56507 0.34757,-1.35562 0.62566,-2.56058 0.82263,-3.66127 0.19704,-1.10071 0.31272,-2.09712 -0.3127,-2.46803 -0.62557,-0.37089 -1.99297,-0.11607 -3.36016,0.13907 -0.53297,2.08558 -1.066,4.17127 -1.54105,5.90926 -0.47506,1.738 -0.89214,3.12832 -1.15862,4.10163 -0.26665,0.97328 -0.38232,1.52923 -0.49819,2.08537 -0.23175,1.4831 -0.46349,2.96636 -0.77633,4.57688 -0.31284,1.61052 -0.70678,3.34847 -1.08913,4.9474 -0.38236,1.59896 -0.75312,3.05878 -1.56419,5.27182 -0.81107,2.21301 -2.06239,5.1791 -1.68003,4.78513 z"
       id="path1790"
       sodipodi:nodetypes="ccccccccccccccc" /><path
       style="fill:#67a687;fill-opacity:1;stroke-width:0.267752"
       d="m 170.05042,119.72511 c 0.0353,0.97567 0.10593,2.92671 0.16476,4.79648 0.0588,1.86977 0.10594,3.65819 0.14125,5.19117 0.0353,1.53298 0.0588,2.81044 0.0353,4.48277 -0.0236,1.67234 -0.0942,3.73948 -0.35327,5.80665 -0.25891,2.06717 -0.70653,4.13427 -0.93025,5.41182 -0.22359,1.27753 -0.22359,1.76527 -0.2942,2.19491 -0.0706,0.42964 -0.21185,0.80111 -0.35324,1.17273 2.1666,-4.99373 4.33313,-9.98737 5.41647,-12.53063 1.0833,-2.54326 1.0833,-2.63644 1.0833,-2.72934 -0.047,-1.02198 -0.0942,-2.04368 -0.047,-3.12377 0.047,-1.08007 0.18828,-2.21813 0.18828,-3.80917 3e-5,-1.59104 -0.14124,-3.63492 -0.36497,-5.41178 -0.22359,-1.77687 -0.52986,-3.28659 -0.83602,-4.91248 -0.30601,-1.62589 -0.61228,-3.36782 -0.96552,-4.91243 -0.35327,-1.54461 -0.75361,-2.89173 -1.04793,-3.7395 -0.29422,-0.84779 -0.48293,-1.1965 -0.67129,-1.54489 -0.96555,-1.41684 -1.93089,-2.83337 -2.89648,-4.20377 -0.96553,-1.37039 -1.93106,-2.694293 -3.06146,-4.064703 -1.1304,-1.3704 -2.42562,-2.78719 -3.93283,-4.29696 -1.50721,-1.509769 -3.22631,-3.112384 -4.65109,-4.378257 -1.42477,-1.265873 -2.55515,-2.194933 -3.76799,-3.124027 -1.21282,-0.92909 -2.50805,-1.858133 -3.54424,-2.578177 -1.0362,-0.720036 -1.81336,-1.231021 -2.62583,-1.649151 -0.81247,-0.418119 -1.66024,-0.74328 -2.28432,-1.021976 -0.6241,-0.278699 -1.02477,-0.511147 -1.42511,-0.743411 -0.30617,-0.16256 -0.61196,-0.325018 -1.21249,-0.568914 -0.60055,-0.243907 -1.49574,-0.569203 -2.39064,-0.894377 1.43654,0.998752 2.8734,1.997722 4.21575,3.066182 1.34233,1.068461 2.59046,2.206547 4.12122,3.658237 1.53077,1.451701 3.34408,3.2169 4.66289,4.494377 1.3188,1.27748 2.14304,2.067177 3.16748,2.961404 1.02446,0.89422 2.24903,1.89296 3.46184,3.05432 1.21282,1.16137 2.41384,2.48527 3.40293,3.72793 0.98909,1.242663 1.76621,2.403983 2.40208,3.298203 0.63587,0.89424 1.13041,1.52135 1.63668,2.60143 0.50625,1.08006 1.02435,2.613 1.38936,3.87886 0.36499,1.26587 0.57694,2.2646 0.87132,3.44917 0.29422,1.18459 0.67119,2.55494 0.8949,3.58853 0.22359,1.03359 0.29422,1.73037 0.32954,2.07862 0.0353,0.34826 0.0353,0.34826 0.0706,1.32392 z"
       id="path1794"
       sodipodi:nodetypes="ccccccccccccccccccccccccccccccccccccccccc" /><path
       style="fill:#d5df4c;fill-opacity:1;stroke-width:0.265289"
       d="m 138.13458,77.032969 c 0.28968,0.03473 2.01367,0.993397 3.15374,1.669719 1.14008,0.676319 1.69592,1.070042 2.25207,1.463979 0,0 -3.40642,-1.390372 -3.40642,-1.390372 -1.14469,-0.889139 -2.28907,-1.778057 -1.99939,-1.743326 z"
       id="path1933"
       sodipodi:nodetypes="ccccc" /><path
       style="fill:#67a687;fill-opacity:1;stroke-width:0.265289"
       d="m 115.01465,216.19158 c 1.1587,-0.18531 5.21393,-1.71476 7.94836,-2.72282 2.73442,-1.00801 4.14778,-1.49457 5.56133,-1.98127 -1.73796,0.46351 -3.47575,0.92693 -5.34119,1.35566 -1.86541,0.42869 -3.85845,0.82264 -5.85133,1.21661 -1.73796,1.15863 -3.47586,2.31726 -2.31717,2.13182 z"
       id="path2210"
       sodipodi:nodetypes="cccccc" /><path
       style="display:inline;fill:#006f3a;fill-opacity:1;stroke-width:0.265289"
       d="m 26.957667,194.45574 c 0.278083,0.53299 0.764694,1.48306 1.483092,2.64173 0.718391,1.15863 1.668249,2.52549 2.618342,3.89272 0,0 0.208531,-2.36362 0.208531,-2.36362 -1.181816,-1.18182 -2.363373,-2.36337 -3.151266,-3.18604 -0.787889,-0.82262 -1.181823,-1.28607 -1.344063,-1.45986 -0.162237,-0.17379 -0.09268,-0.0578 0.185335,0.47507 z"
       id="path2545" /><path
       style="display:inline;fill:#d3dd4c;fill-opacity:1;stroke-width:0.265289"
       d="m 23.145652,172.36043 c -0.127444,-0.56779 0.382365,0.89212 1.228206,2.85024 0.845846,1.95817 2.027639,4.41441 3.01252,6.25668 0.984882,1.84224 1.77274,3.07037 1.969585,3.9856 0.196835,0.91522 -0.19703,1.51763 -0.590983,2.12012 0,0 -3.962564,-9.45452 -3.962564,-9.45452 -0.764707,-2.59536 -1.52932,-5.19042 -1.656764,-5.75812 z"
       id="path3020" /><path
       style="fill:#d5df4c;fill-opacity:1;stroke-width:0.265289"
       d="m 147.39366,203.04031 c -0.0579,0.40556 -4.66671,3.83537 -7.63164,6.0486 -2.96493,2.21324 -4.28581,3.20969 -5.60666,4.20612 0,0 1.45989,-4.17109 1.45989,-4.17109 0.95009,-0.41713 1.90031,-0.83438 4.62187,-2.35238 2.72158,-1.51799 7.2145,-4.13678 7.15654,-3.73125 z"
       id="path3098"
       sodipodi:nodetypes="cccccc" /><path
       style="fill:#d5df4c;fill-opacity:1;stroke-width:0.265289"
       d="m 163.44299,120.50303 c -0.7056,-1.24836 -1.62848,-4.50557 -2.55127,-7.76248 1.1942,1.95414 2.38859,3.9086 3.09423,5.15709 0.70563,1.24849 0.92262,1.79097 1.13975,2.33379 -0.48854,0.75995 -0.97712,1.51996 -1.68271,0.27157 z"
       id="path699"
       sodipodi:nodetypes="ccccc" /><path
       style="fill:#67a687;fill-opacity:1;stroke-width:0.265289"
       d="m 173.89218,135.37624 c 0.73283,-0.7056 0.62426,1.51995 0.48854,3.1484 -0.13583,1.62845 -0.29858,2.65978 -0.5157,3.88112 -0.21724,1.22135 -0.48848,2.63245 -0.75989,4.04377 0,0 -3.09405,-3.09406 -3.09405,-3.09406 1.57415,-3.63687 3.14828,-7.27362 3.8811,-7.97923 z"
       id="path826" /><path
       style="fill:#67a687;fill-opacity:1;stroke-width:0.265289"
       d="m 174.38072,131.30508 c 0.40714,0.16296 0.46141,1.62857 0.48858,2.95848 0.0269,1.32991 0.0269,2.52408 -0.13584,4.04396 -0.16275,1.51989 -0.48854,3.36544 -0.81423,4.99388 -0.32583,1.62847 -0.65139,3.03978 -0.92281,4.15255 -0.27135,1.11276 -0.48848,1.92682 -0.70562,2.74103 0,0 0.16275,-16.77307 0.16275,-16.77307 0.75996,-1.13992 1.51985,-2.27978 1.92698,-2.11683 z"
       id="path830" /><path
       style="fill:#d5df4c;fill-opacity:1;stroke-width:0.265289"
       d="m 24.834608,177.20052 c 0.841348,1.6013 2.904038,5.29244 5.075355,8.65794 2.171316,3.36547 4.451109,6.40523 6.622428,8.87501 2.171313,2.46984 4.233984,4.36964 7.762363,7.11089 3.528379,2.74125 8.5219,6.32355 13.515826,9.90618 -4.28826,-2.0084 -8.576117,-4.0167 -12.131664,-6.29647 -3.555546,-2.27983 -6.378149,-4.83102 -8.549442,-6.89374 -2.17129,-2.06275 -3.691154,-3.63685 -4.831086,-4.85823 -1.139936,-1.22135 -1.900111,-2.0901 -2.660056,-2.95861 -1.031354,-2.06269 -2.062528,-4.12506 -2.87682,-6.4864 -0.814289,-2.36131 -1.411361,-5.02098 -1.899832,-6.59518 -0.488466,-1.57423 -0.868424,-2.06274 -0.02689,-0.46139 z"
       id="path903"
       sodipodi:nodetypes="cccccccccccc" /></g></svg>
